<?xml version="1.0" encoding="UTF-8" standalone="no"?>
<!DOCTYPE svg PUBLIC "-//W3C//DTD SVG 1.1//EN" "http://www.w3.org/Graphics/SVG/1.1/DTD/svg11.dtd">
<svg width="100%" height="100%" viewBox="0 0 64 64" version="1.1" xmlns="http://www.w3.org/2000/svg" xmlns:xlink="http://www.w3.org/1999/xlink" xml:space="preserve" xmlns:serif="http://www.serif.com/" style="fill-rule:evenodd;clip-rule:evenodd;stroke-linejoin:round;stroke-miterlimit:2;">
    <g transform="matrix(0.0270728,0,0,0.0270728,-0.539804,-1.43437)">
        <g>
            <path d="M2141.94,842.982C2175.06,590.865 2263.94,522.982 2359.94,424.982L2039.94,112.982C2039.94,112.982 1851.36,268.484 1619.94,250.982C1381.94,232.982 1291.94,144.982 1201.94,56.982C1111.94,144.982 1021.94,232.982 783.939,250.982C552.522,268.484 363.939,112.982 363.939,112.982L43.939,424.982C139.939,522.982 228.814,590.865 261.939,842.982C297.939,1116.98 19.939,1282.98 19.939,1282.98C25.939,1342.98 95.939,1542.98 279.939,1734.98C455.115,1917.78 529.939,1948.98 785.939,2096.98C1041.94,2244.98 1201.94,2412.98 1201.94,2412.98C1201.94,2412.98 1361.94,2244.98 1617.94,2096.98C1873.94,1948.98 1948.76,1917.78 2123.94,1734.98C2307.94,1542.98 2377.94,1342.98 2383.94,1282.98C2383.94,1282.98 2105.94,1116.98 2141.94,842.982Z" style="fill-rule:nonzero;"/>
            <path d="M369.671,171.723C369.671,171.723 549.615,301.777 771.427,292.983C998.427,283.983 1106.43,207.983 1204.43,120.983C1204.43,120.983 1371.44,295.092 1627.43,291.983C1874.43,288.983 1936.43,230.983 2047.43,174.983L2203.43,323.983L1503.43,992.983C1503.43,992.983 1486.43,1140.98 1360.43,1254.98C1300.9,1308.84 1254.43,1357.98 1073.43,1396.98L551.427,1900.98C551.427,1900.98 142.854,1628.98 71.427,1308.98C71.427,1308.98 317.427,1130.98 309.427,882.983C301.427,634.983 179.427,486.983 113.427,424.983L369.671,171.723Z" style="fill:rgb(228,31,33);fill-rule:nonzero;"/>
            <g id="Ball">
                <path d="M635.104,1254.53C410.059,1072.32 375.283,742.144 557.477,517.091C739.667,292.03 1069.89,257.316 1294.95,439.499C1520.01,621.711 1554.68,951.895 1372.51,1176.91C1190.31,1401.96 860.148,1436.75 635.104,1254.53Z" style="fill:rgb(1,2,2);fill-rule:nonzero;"/>
                <path d="M1344.16,632.327C1374.15,666.694 1405.22,782.935 1408.05,829.058C1425.41,826.383 1442.12,823.15 1458.2,819.405C1451.72,703.427 1404.61,590.074 1319.58,502.271C1333.11,536.164 1346.54,583.036 1344.16,632.327ZM1168.53,632.99C1165,628.7 1159.33,621.84 1151.67,613.419C1138.35,598.651 1116.87,576.533 1090.18,554.914C1058.64,529.393 1026.98,510.214 995.962,497.957C942.915,510.786 879.661,534.569 802.77,570.704C770.791,634.027 771.141,734.166 772.832,774.539C773.005,778.597 773.15,782.268 773.362,785.518C780.148,791.165 787.215,796.965 794.214,802.679C825.911,828.319 855.035,849.664 883.168,870.284C900.326,882.84 916.622,894.643 932.975,907.218C936.531,906.587 942.784,905.45 951.031,903.708C970.717,899.65 990.133,894.738 1008.83,889.354C1048,877.921 1102.32,858.345 1139.53,829.431C1152.96,770.106 1167.32,701.566 1169.73,634.503C1169.38,634.035 1168.93,633.53 1168.53,632.99ZM1319.58,502.224C1319.02,501.701 1318.5,501.17 1318.04,500.644C1318.52,501.192 1319.05,501.745 1319.58,502.271C1319.58,502.265 1319.58,502.224 1319.58,502.224ZM1035.78,1234.57C1098.95,1215.61 1166.72,1193.33 1234.45,1158.63C1235.93,1155.06 1238.32,1149.1 1241.18,1141.38C1246,1128.7 1253.07,1108.66 1259.78,1085.16C1270.36,1048.24 1282.08,995.049 1278.55,949.406C1270.76,943.01 1261.95,935.793 1251.61,927.42C1238.5,916.811 1224.63,905.707 1210.49,894.329C1188.68,876.824 1166.3,858.866 1145.42,841.791C1080.86,890.304 975.047,913.038 938.325,919.784C927.97,968.048 913.654,1017.42 899.979,1065.2C895.765,1079.71 891.463,1094.64 887.3,1109.37C904.322,1135.87 933.073,1166.73 964.622,1192.29L964.692,1192.35L962.982,1194.5L963.124,1194.59L964.854,1192.47C991.698,1214.18 1017.4,1229.48 1035.78,1234.57ZM1004.92,487.23C1035.92,500.054 1067.39,519.325 1098.53,544.565C1137.69,576.25 1166.33,609.25 1178.66,624.358C1224.64,612.144 1301.08,615.483 1331.09,624.58C1332.06,564.48 1309.88,509.161 1294.09,477.756C1287.92,472.147 1281.52,466.719 1274.99,461.425C1223.49,419.741 1166.16,390.067 1106.51,372.045C1100.77,372.003 1095.1,371.99 1089.49,372.095C1056.93,372.781 1026.32,376.203 998.254,382.321C1010.37,404.879 1012.54,439.306 1004.92,487.23ZM1458.79,832.615C1458.76,832.759 1458.8,832.87 1458.8,832.965L1458.8,832.983C1458.8,832.87 1458.76,832.759 1458.79,832.615ZM1292.06,951.982C1297.04,1033.3 1258.73,1134.54 1247.49,1161.9C1259.77,1172.91 1282.56,1194.32 1296.88,1214.34C1315.11,1197.65 1332.46,1179.5 1348.49,1159.67C1426.18,1063.67 1462.16,947.465 1458.8,832.966C1442.03,836.73 1424.59,840.065 1406.65,842.755C1383.63,894.949 1326.47,932.969 1292.06,951.982ZM466.251,856.41C466.256,856.402 466.271,856.385 466.271,856.385C466.304,855.351 466.209,854.451 466.215,853.5C466.225,854.46 466.253,855.395 466.251,856.41ZM680.177,1095.45C654.786,1064.15 611.872,945.792 606.352,906.006C557.11,879.261 518.748,847.803 494.545,814.525C489.196,822.405 483.837,830.421 478.943,837.607C474.102,844.725 469.829,851.115 466.27,856.385C468.577,979.306 516.329,1100.7 606.669,1193.38C618.922,1195.42 631.232,1198.19 642.31,1202.42C648.688,1176.6 662.888,1130.82 680.177,1095.45ZM1028.17,1246.07C1008.33,1239.57 983.095,1224.31 956.314,1202.65C923.901,1176.42 894.338,1144.67 876.555,1117.31C845.195,1119.77 737.611,1117 691.834,1101.95C674.314,1138.06 659.29,1187.1 653.876,1211.79C663.985,1225.89 673.132,1241.14 682.812,1257.26C682.867,1257.32 682.878,1257.44 682.902,1257.5C772.264,1318.55 875.783,1346.64 977.931,1343.51C1000.02,1312.92 1019.37,1272.8 1028.17,1246.07ZM684.346,486.117C706.047,447.609 738.764,413.65 781.797,384.856C704.12,415.153 632.982,465.428 576.744,534.891C563.441,551.279 551.363,568.306 540.546,585.843C568.661,554.646 619.98,506.777 684.346,486.117ZM1059.03,360.245C1004.42,349.447 948.534,348.024 893.883,355.636C933.121,356.111 963.341,363.564 987.205,371.203C1009.63,365.771 1033.67,362.111 1059.03,360.245ZM610.283,893.047C651.405,845.347 704.298,806.979 759.944,784.401C757.885,746.732 755.541,638.426 789.257,567.941C786.853,565.655 783.821,563.094 780.242,560.219C755.449,540.134 709.674,510.213 689.846,498.335C612.521,522.573 552.893,590.677 536.358,611.119C534.744,613.082 533.531,614.708 532.494,615.988C509.746,669.713 499.386,750.474 500.947,800.361C513.244,818.737 529.993,836.776 550.961,853.733C568.186,867.655 588.095,880.819 610.283,893.047Z" style="fill:white;fill-rule:nonzero;"/>
            </g>
            <g>
                <path d="M1039.53,1755.34L991.498,1799.9L1012.84,1822.9L1050.8,1787.68L1068.58,1806.85L1030.63,1842.07L1067.87,1882.21L1042.92,1905.36L947.712,1802.76L1020.7,1735.04L1039.53,1755.34Z" style="fill:rgb(246,246,246);fill-rule:nonzero;"/>
                <path d="M1151.21,1685L1127.5,1709.94C1113.71,1695.78 1101.34,1693.79 1090.39,1703.94C1077.84,1715.59 1081.91,1732.56 1102.6,1754.86C1114.55,1767.74 1124.36,1774.89 1132.03,1776.31C1139.69,1777.73 1146.59,1775.59 1152.72,1769.9C1162.66,1760.68 1162.74,1748.58 1152.95,1733.6L1177.58,1713.41C1187.46,1727.08 1191.55,1740.65 1189.84,1754.13C1188.12,1767.61 1181.73,1779.49 1170.66,1789.77C1157.08,1802.37 1141.69,1807.93 1124.51,1806.44C1107.32,1804.95 1091.05,1795.94 1075.71,1779.4C1061.34,1763.92 1053.68,1747.42 1052.74,1729.93C1051.8,1712.43 1058.44,1697.08 1072.67,1683.87C1097.33,1661 1123.51,1661.37 1151.21,1685Z" style="fill:rgb(246,246,246);fill-rule:nonzero;"/>
                <path d="M1204.64,1639.61L1185.04,1618.49C1197.95,1596.82 1203.06,1579.12 1200.38,1565.37L1217.82,1549.19L1297.05,1634.58L1315.99,1654.56L1293.14,1677.72L1273.45,1656.48L1218.98,1597.78C1213.63,1616.54 1208.85,1630.49 1204.64,1639.61Z" style="fill:rgb(246,246,246);fill-rule:nonzero;"/>
                <path d="M1346.89,1572.67C1355.69,1577.92 1363.59,1577.32 1370.57,1570.83C1375.29,1566.45 1377.56,1560.76 1377.37,1553.76C1377.18,1546.75 1370.63,1536.09 1357.71,1521.77C1358.41,1534.28 1354.04,1544.9 1344.62,1553.64C1335.5,1562.11 1325.25,1566.21 1313.87,1565.95C1302.49,1565.7 1292.48,1560.91 1283.83,1551.59C1274.39,1541.42 1270.13,1530.03 1271.06,1517.41C1272,1504.8 1278.22,1493.14 1289.75,1482.44C1298.02,1474.77 1306.96,1469.97 1316.59,1468.03C1326.21,1466.09 1336.5,1467.73 1347.42,1472.92C1358.36,1478.12 1368.59,1485.85 1378.12,1496.13C1392.39,1511.51 1400.84,1527.69 1403.44,1544.67C1406.05,1561.65 1400.31,1576.67 1386.23,1589.74C1368.14,1606.52 1349.2,1608.62 1329.4,1596.03L1346.89,1572.67ZM1306.03,1499.09C1301.57,1503.23 1299.38,1508.23 1299.45,1514.08C1299.52,1519.93 1301.44,1524.89 1305.21,1528.95C1309.02,1533.06 1313.73,1535.4 1319.35,1535.97C1324.96,1536.55 1330.05,1534.72 1334.61,1530.49C1339.17,1526.26 1341.41,1521.19 1341.34,1515.28C1341.27,1509.38 1339.38,1504.42 1335.66,1500.41C1331.89,1496.36 1327.12,1494.1 1321.33,1493.64C1315.54,1493.18 1310.44,1495 1306.03,1499.09Z" style="fill:rgb(246,246,246);fill-rule:nonzero;"/>
                <path d="M1435.22,1389.57L1390.42,1431.14L1409.97,1455.52C1410.04,1444.55 1414.61,1434.85 1423.68,1426.43C1432.95,1417.83 1443.64,1413.57 1455.76,1413.66C1467.87,1413.75 1478.39,1418.61 1487.32,1428.23C1497.22,1438.9 1501.83,1450.88 1501.14,1464.15C1500.45,1477.43 1493.82,1489.9 1481.24,1501.58C1459.39,1521.85 1436.87,1524.66 1413.66,1510.01L1433.07,1485.7C1443.75,1492.58 1453.64,1491.79 1462.77,1483.33C1467.78,1478.68 1470.32,1473.43 1470.39,1467.58C1470.47,1461.73 1468.55,1456.7 1464.64,1452.49C1460.55,1448.08 1455.49,1445.74 1449.45,1445.46C1443.41,1445.19 1438.12,1447.17 1433.56,1451.4C1427.19,1457.3 1424.75,1464.52 1426.22,1473.04L1403.65,1487.97L1353.68,1426.07L1418.32,1366.08L1435.22,1389.57Z" style="fill:rgb(246,246,246);fill-rule:nonzero;"/>
                <path d="M1527.43,1405.13C1536.24,1410.39 1544.13,1409.78 1551.11,1403.3C1555.84,1398.92 1558.1,1393.23 1557.91,1386.22C1557.72,1379.22 1551.17,1368.56 1538.26,1354.24C1538.95,1366.75 1534.59,1377.37 1525.17,1386.11C1516.05,1394.58 1505.8,1398.68 1494.42,1398.42C1483.03,1398.17 1473.02,1393.38 1464.37,1384.06C1454.93,1373.89 1450.68,1362.49 1451.61,1349.88C1452.54,1337.26 1458.77,1325.61 1470.29,1314.91C1478.56,1307.24 1487.51,1302.44 1497.13,1300.5C1506.76,1298.56 1517.04,1300.19 1527.97,1305.39C1538.9,1310.59 1549.13,1318.32 1558.66,1328.6C1572.94,1343.98 1581.38,1360.16 1583.99,1377.14C1586.59,1394.12 1580.85,1409.14 1566.77,1422.21C1548.68,1438.99 1529.74,1441.09 1509.94,1428.5L1527.43,1405.13ZM1486.58,1331.56C1482.12,1335.7 1479.92,1340.69 1480,1346.55C1480.07,1352.41 1481.99,1357.36 1485.75,1361.42C1489.57,1365.53 1494.28,1367.87 1499.89,1368.44C1505.51,1369.02 1510.59,1367.19 1515.15,1362.96C1519.71,1358.73 1521.96,1353.66 1521.89,1347.75C1521.82,1341.85 1519.92,1336.89 1516.2,1332.88C1512.44,1328.82 1507.66,1326.57 1501.87,1326.11C1496.09,1325.65 1490.99,1327.47 1486.58,1331.56Z" style="fill:rgb(246,246,246);fill-rule:nonzero;"/>
            </g>
            <g>
                <path d="M1167.59,1878.05L1153.46,1903.64C1143.27,1898.07 1133.73,1899.36 1124.85,1907.53C1115.38,1916.25 1113.47,1923.68 1119.12,1929.83C1121.38,1932.28 1124.17,1933.54 1127.51,1933.61C1130.85,1933.68 1136.21,1931.47 1143.61,1926.98C1155.98,1919.49 1165.57,1914.59 1172.39,1912.28C1179.22,1909.98 1186.48,1909.68 1194.19,1911.4C1201.91,1913.12 1208.48,1916.92 1213.9,1922.83C1222.41,1932.07 1226.21,1943.35 1225.3,1956.64C1224.39,1969.94 1216.94,1983.02 1202.96,1995.89C1192.46,2005.54 1181.34,2011.37 1169.58,2013.38C1157.82,2015.38 1146.44,2012.76 1135.44,2005.52L1153.02,1980.07C1164.3,1987.33 1175.63,1985.72 1187.01,1975.26C1192.5,1970.2 1195.61,1965.38 1196.35,1960.78C1197.09,1956.17 1196.1,1952.39 1193.39,1949.44C1190.63,1946.44 1187.26,1945.25 1183.3,1945.85C1179.34,1946.44 1173.19,1949.24 1164.87,1954.22C1149.35,1963.5 1136.67,1968.36 1126.82,1968.78C1116.98,1969.21 1107.92,1964.92 1099.64,1955.92C1091.27,1946.82 1087.52,1936.1 1088.39,1923.77C1089.26,1911.43 1095.36,1900.04 1106.7,1889.61C1126.78,1871.14 1147.08,1867.28 1167.59,1878.05Z" style="fill:rgb(246,246,246);fill-rule:nonzero;"/>
                <path d="M1298.92,1852.22C1306.3,1861.95 1309.42,1872.44 1308.28,1883.69C1307.14,1894.94 1301.64,1905.1 1291.79,1914.16C1281.09,1924.01 1269.13,1928.49 1255.89,1927.6C1242.66,1926.71 1230.59,1920.34 1219.69,1908.49C1208.79,1896.64 1203.38,1883.87 1203.47,1870.17C1203.56,1856.47 1209.35,1844.33 1220.86,1833.75C1230.1,1825.24 1240.32,1820.96 1251.5,1820.93C1262.68,1820.89 1272.44,1824.74 1280.77,1832.49L1261.02,1852.88C1251.95,1844.42 1243.82,1843.5 1236.62,1850.13C1227.77,1858.27 1230.01,1869.59 1243.35,1884.09C1252.23,1893.74 1259.1,1898.73 1263.97,1899.05C1268.84,1899.37 1273.04,1897.9 1276.59,1894.63C1283.49,1888.29 1283.59,1880.12 1276.89,1870.13L1298.92,1852.22Z" style="fill:rgb(246,246,246);fill-rule:nonzero;"/>
                <path d="M1265.61,1746.32L1299.58,1783.25C1296.39,1771.56 1299.58,1761.32 1309.13,1752.54C1314.23,1747.84 1319.61,1744.94 1325.28,1743.83C1330.95,1742.72 1336.14,1743.24 1340.83,1745.38C1345.53,1747.53 1350.98,1751.97 1357.19,1758.72L1403.21,1808.74L1380.87,1829.31L1341.56,1786.58C1336.86,1781.47 1333.43,1778.15 1331.29,1776.61C1329.14,1775.08 1326.77,1774.33 1324.17,1774.36C1321.58,1774.39 1319.21,1775.39 1317.07,1777.36C1314.27,1779.92 1312.51,1783.56 1311.78,1788.26C1311.04,1792.95 1313.94,1798.86 1320.48,1805.97L1359.79,1848.69L1338.12,1868.63L1243.93,1766.26L1265.61,1746.32Z" style="fill:rgb(246,246,246);fill-rule:nonzero;"/>
                <path d="M1452.24,1623.77L1499.04,1720.58L1479.37,1738.68L1422.52,1700.97L1455.4,1760.73L1436.75,1777.89L1343.57,1723.75L1366.88,1702.31L1421.81,1737.22L1390.83,1680.28L1411.04,1661.68L1464.98,1698.05L1435.01,1639.63L1452.24,1623.77Z" style="fill:rgb(246,246,246);fill-rule:nonzero;"/>
                <path d="M1567.56,1594.53L1518.81,1639.38C1520.01,1640.78 1521.06,1641.98 1521.98,1642.98C1526.95,1648.37 1532.13,1651.13 1537.54,1651.23C1542.94,1651.34 1547.65,1649.55 1551.65,1645.87C1559.1,1639.02 1559.91,1630.92 1554.1,1621.59L1575.73,1604.47C1586.18,1627.16 1582.75,1646.47 1565.46,1662.38C1557.91,1669.33 1550.1,1673.72 1542.04,1675.54C1533.99,1677.37 1525.58,1676.96 1516.82,1674.31C1508.06,1671.67 1499.95,1666.29 1492.5,1658.19C1481.41,1646.14 1475.9,1633.26 1475.97,1619.53C1476.04,1605.81 1481.47,1593.98 1492.27,1584.04C1502.02,1575.07 1513.54,1570.81 1526.84,1571.27C1540.14,1571.73 1553.72,1579.48 1567.56,1594.53ZM1506.8,1626.48L1533.73,1601.7C1523.46,1591.95 1514.4,1590.68 1506.55,1597.9C1498.15,1605.63 1498.23,1615.16 1506.8,1626.48Z" style="fill:rgb(246,246,246);fill-rule:nonzero;"/>
                <path d="M1539.29,1490.65L1559.85,1513L1537.5,1533.56L1516.94,1511.21L1539.29,1490.65ZM1565.72,1519.37L1635.4,1595.12L1613.06,1615.68L1543.37,1539.93L1565.72,1519.37Z" style="fill:rgb(246,246,246);fill-rule:nonzero;"/>
                <path d="M1719.62,1517.63L1697.28,1538.2L1658.15,1495.67C1653.42,1490.53 1649.97,1487.18 1647.83,1485.65C1645.68,1484.12 1643.22,1483.41 1640.45,1483.51C1637.68,1483.61 1635.12,1484.74 1632.77,1486.9C1624.92,1494.12 1626.33,1503.54 1637,1515.13L1676.13,1557.65L1653.78,1578.22L1584.09,1502.47L1604.86,1483.36L1616.66,1496.18C1614.5,1486.91 1614.29,1479.86 1616.03,1475.03C1617.77,1470.19 1620.59,1465.98 1624.49,1462.39C1631.69,1455.77 1639.27,1452.37 1647.24,1452.2C1655.2,1452.03 1664.4,1457.62 1674.85,1468.96L1719.62,1517.63Z" style="fill:rgb(246,246,246);fill-rule:nonzero;"/>
                <path d="M1666.24,1377.73L1699.5,1413.88C1696.69,1402.8 1699.54,1393.35 1708.04,1385.53C1716.74,1377.52 1726.84,1374.71 1738.35,1377.09C1749.87,1379.47 1761.26,1386.78 1772.53,1399.03C1783.38,1410.83 1789.55,1422.75 1791.02,1434.78C1792.5,1446.81 1788.34,1457.33 1778.54,1466.34C1773.45,1471.02 1768.5,1473.96 1763.69,1475.16C1758.88,1476.35 1752.42,1475.79 1744.29,1473.48C1744.22,1476.23 1746.12,1481.63 1750,1489.69L1738.08,1500.66L1643.89,1398.29L1666.24,1377.73ZM1732.82,1450.1C1737.7,1455.4 1742.49,1458.38 1747.2,1459.03C1751.91,1459.68 1755.81,1458.59 1758.91,1455.73C1762.61,1452.33 1764.16,1447.88 1763.54,1442.4C1762.93,1436.92 1758.28,1429.45 1749.58,1420C1739.69,1409.25 1732.25,1403.64 1727.24,1403.17C1722.24,1402.7 1718.16,1403.91 1715.01,1406.81C1711.36,1410.16 1709.89,1414.38 1710.59,1419.46C1711.29,1424.54 1714.26,1429.93 1719.51,1435.63L1732.82,1450.1Z" style="fill:rgb(246,246,246);fill-rule:nonzero;"/>
                <path d="M1858.32,1327.02L1809.58,1371.87C1810.77,1373.27 1811.83,1374.47 1812.74,1375.46C1817.71,1380.86 1822.9,1383.62 1828.3,1383.72C1833.71,1383.83 1838.41,1382.04 1842.41,1378.36C1849.86,1371.51 1850.68,1363.41 1844.86,1354.09L1866.49,1336.96C1876.94,1359.65 1873.52,1378.96 1856.22,1394.88C1848.67,1401.82 1840.87,1406.21 1832.81,1408.04C1824.75,1409.87 1816.34,1409.46 1807.58,1406.81C1798.82,1404.16 1790.71,1398.78 1783.26,1390.68C1772.18,1378.63 1766.67,1365.75 1766.73,1352.02C1766.8,1338.3 1772.23,1326.47 1783.03,1316.53C1792.78,1307.56 1804.31,1303.31 1817.61,1303.76C1830.91,1304.22 1844.48,1311.97 1858.32,1327.02ZM1797.56,1358.97L1824.49,1334.19C1814.22,1324.44 1805.16,1323.17 1797.31,1330.39C1788.91,1338.12 1789,1347.65 1797.56,1358.97Z" style="fill:rgb(246,246,246);fill-rule:nonzero;"/>
                <path d="M1925.49,1328.23L1903.82,1348.17L1834.13,1272.42L1854.6,1253.59L1867.58,1267.69C1861.06,1254.29 1861.68,1244.03 1869.43,1236.9C1870.53,1235.88 1871.95,1234.72 1873.69,1233.4L1893.98,1255.44C1889.43,1259.63 1886.53,1263.59 1885.3,1267.31C1884.06,1271.03 1884.31,1275.44 1886.05,1280.54C1887.78,1285.64 1891.48,1291.26 1897.13,1297.41L1925.49,1328.23Z" style="fill:rgb(246,246,246);fill-rule:nonzero;"/>
                <path d="M1964.71,1155.47C1961.9,1157.13 1959.69,1158.7 1958.1,1160.17C1953.14,1164.73 1952.27,1169.6 1955.47,1174.78C1963.43,1175.3 1969.87,1178.24 1974.79,1183.59C1981.37,1190.74 1983.62,1199.19 1981.56,1208.93C1979.5,1218.68 1972.84,1228.73 1961.59,1239.08C1957.59,1242.76 1953.34,1245.97 1948.85,1248.71C1947.68,1252.56 1948.17,1255.65 1950.34,1258.01C1952.73,1260.61 1955.39,1261.35 1958.33,1260.22C1961.26,1259.09 1967.01,1254.96 1975.58,1247.81C1987.78,1237.69 1996.47,1231.04 2001.65,1227.84C2006.83,1224.64 2012.42,1223.29 2018.41,1223.78C2024.4,1224.27 2029.62,1226.93 2034.09,1231.79C2040.48,1238.73 2042.67,1247.57 2040.66,1258.28C2038.66,1268.99 2029.48,1281.86 2013.13,1296.9C1997.78,1311.03 1985.9,1318.88 1977.48,1320.48C1969.07,1322.07 1962.52,1320.31 1957.82,1315.21C1951.6,1308.45 1951.74,1299.91 1958.22,1289.6C1948.88,1292.29 1941.54,1290.74 1936.2,1284.94C1929.53,1277.69 1929.38,1267.39 1935.76,1254.05C1923.41,1258.59 1913.26,1256.54 1905.3,1247.89C1898.83,1240.85 1896.65,1232.29 1898.78,1222.21C1900.91,1212.14 1907.42,1202.08 1918.33,1192.05C1925.23,1185.71 1932.91,1180.66 1941.38,1176.93C1937.88,1172.22 1935.89,1167.52 1935.41,1162.84C1934.93,1158.15 1938.07,1152.7 1944.82,1146.49C1947.02,1144.47 1949.3,1142.74 1951.67,1141.3L1964.71,1155.47ZM1973.91,1282.72C1973.01,1283.55 1972.42,1285.2 1972.15,1287.66C1971.88,1290.12 1972.53,1292.2 1974.09,1293.91C1977.22,1297.3 1981.35,1297.43 1986.48,1294.28C1991.61,1291.13 1997.1,1286.86 2002.95,1281.48C2010.6,1274.44 2015.43,1268.93 2017.45,1264.95C2019.47,1260.97 2019.31,1257.71 2016.96,1255.16C2015.16,1253.21 2012.5,1252.89 2008.96,1254.21C2005.41,1255.53 1998.07,1261.32 1986.92,1271.58L1982.49,1275.79C1979.74,1278.32 1977.82,1279.95 1976.73,1280.67C1975.5,1281.44 1974.56,1282.12 1973.91,1282.72ZM1929.25,1204.3C1925.41,1207.83 1923.36,1211.63 1923.1,1215.7C1922.84,1219.77 1924.28,1223.51 1927.4,1226.91C1934.49,1234.61 1942.14,1234.67 1950.37,1227.1C1954.36,1223.44 1956.45,1219.43 1956.65,1215.1C1956.85,1210.76 1955.47,1206.99 1952.53,1203.79C1949.77,1200.79 1946.27,1199.14 1942.04,1198.84C1937.8,1198.54 1933.54,1200.36 1929.25,1204.3Z" style="fill:rgb(246,246,246);fill-rule:nonzero;"/>
            </g>
            <g>
                <path d="M1977.3,1488.22L1928.1,1533.17C1929.29,1534.58 1930.35,1535.79 1931.27,1536.8C1936.25,1542.25 1941.46,1545.04 1946.9,1545.16C1952.34,1545.29 1957.07,1543.51 1961.11,1539.82C1968.63,1532.95 1969.48,1524.81 1963.67,1515.4L1985.49,1498.24C1995.92,1521.11 1992.41,1540.53 1974.95,1556.48C1967.33,1563.44 1959.46,1567.83 1951.35,1569.64C1943.23,1571.45 1934.77,1571.01 1925.97,1568.32C1917.16,1565.62 1909.03,1560.18 1901.56,1552.01C1890.44,1539.85 1884.94,1526.86 1885.06,1513.05C1885.17,1499.24 1890.68,1487.36 1901.58,1477.4C1911.42,1468.41 1923.04,1464.16 1936.42,1464.67C1949.8,1465.18 1963.43,1473.03 1977.3,1488.22ZM1916.06,1520.14L1943.23,1495.32C1932.94,1485.46 1923.83,1484.16 1915.9,1491.4C1907.42,1499.14 1907.48,1508.73 1916.06,1520.14Z" style="fill:rgb(246,246,246);fill-rule:nonzero;"/>
                <path d="M2045.34,1489.26L2021.95,1510.63L2000.58,1487.24L2023.97,1465.86L2045.34,1489.26Z" style="fill:rgb(246,246,246);fill-rule:nonzero;"/>
                <path d="M2046.39,1298.71L2109.58,1430.56L2083.57,1454.33L1958.12,1379.35L1983.89,1355.81L2072.07,1410.8L2026.09,1317.25L2046.39,1298.71Z" style="fill:rgb(246,246,246);fill-rule:nonzero;"/>
                <path d="M2165.32,1379.63L2141.93,1401L2120.56,1377.61L2143.95,1356.24L2165.32,1379.63Z" style="fill:rgb(246,246,246);fill-rule:nonzero;"/>
            </g>
        </g>
    </g>
</svg>
