<?xml version="1.0" encoding="UTF-8" standalone="no"?>
<!DOCTYPE svg PUBLIC "-//W3C//DTD SVG 1.1//EN" "http://www.w3.org/Graphics/SVG/1.1/DTD/svg11.dtd">
<svg width="100%" height="100%" viewBox="0 0 64 64" version="1.1" xmlns="http://www.w3.org/2000/svg" xmlns:xlink="http://www.w3.org/1999/xlink" xml:space="preserve" xmlns:serif="http://www.serif.com/" style="fill-rule:evenodd;clip-rule:evenodd;stroke-linejoin:round;stroke-miterlimit:2;">
    <path d="M57.448,21.387C56.474,28.805 64,33.299 64,33.299C63.838,34.924 61.942,40.338 56.961,45.536C52.219,50.485 50.193,51.33 43.262,55.337C36.332,59.343 32,63.892 32,63.892C32,63.892 27.668,59.343 20.738,55.337C13.807,51.33 11.781,50.485 7.039,45.536C2.058,40.338 0.162,34.924 0,33.299C0,33.299 7.526,28.805 6.552,21.387C5.655,14.562 3.249,12.724 0.65,10.071L9.313,1.624C9.313,1.624 14.418,5.834 20.684,5.36C27.127,4.873 29.563,2.491 32,0.108C34.437,2.491 36.873,4.873 43.316,5.36C49.582,5.834 54.687,1.624 54.687,1.624L63.35,10.071C60.751,12.724 58.345,14.562 57.448,21.387ZM35.924,41.142L35.451,41.775C35.987,42.115 36.5,42.059 36.989,41.604C37.37,41.25 37.526,40.844 37.455,40.384C37.385,39.924 37.156,39.486 36.77,39.07C36.512,38.792 36.235,38.582 35.939,38.442C35.643,38.301 35.364,38.257 35.104,38.309C34.843,38.362 34.601,38.492 34.377,38.7C34.065,38.989 33.897,39.305 33.871,39.646C33.846,39.988 33.961,40.296 34.217,40.571C34.451,40.824 34.722,40.953 35.03,40.96C35.338,40.967 35.616,40.856 35.863,40.627C36.118,40.39 36.236,40.103 36.217,39.764C36.567,40.152 36.744,40.44 36.749,40.63C36.754,40.82 36.693,40.974 36.565,41.092C36.376,41.268 36.163,41.284 35.924,41.142ZM34.818,39.15C34.937,39.039 35.076,38.99 35.232,39.003C35.389,39.015 35.518,39.076 35.62,39.186C35.721,39.295 35.772,39.429 35.774,39.589C35.776,39.748 35.715,39.886 35.592,40C35.468,40.115 35.331,40.164 35.179,40.149C35.027,40.133 34.899,40.07 34.796,39.959C34.694,39.849 34.642,39.714 34.64,39.556C34.638,39.397 34.697,39.262 34.818,39.15ZM40.812,36.607L40.339,37.239C40.875,37.58 41.387,37.523 41.877,37.069C42.258,36.715 42.414,36.308 42.343,35.849C42.273,35.389 42.044,34.951 41.658,34.534C41.399,34.256 41.122,34.047 40.827,33.906C40.531,33.765 40.252,33.721 39.992,33.774C39.731,33.826 39.489,33.956 39.265,34.164C38.953,34.454 38.784,34.769 38.759,35.111C38.734,35.452 38.849,35.761 39.105,36.036C39.339,36.288 39.61,36.418 39.918,36.425C40.226,36.432 40.504,36.321 40.751,36.092C41.006,35.855 41.124,35.567 41.105,35.229C41.455,35.616 41.632,35.905 41.637,36.095C41.642,36.284 41.581,36.438 41.453,36.557C41.264,36.732 41.05,36.749 40.812,36.607ZM39.706,34.615C39.825,34.504 39.963,34.455 40.12,34.467C40.277,34.479 40.406,34.541 40.508,34.65C40.609,34.759 40.66,34.893 40.662,35.053C40.664,35.213 40.603,35.35 40.48,35.465C40.356,35.579 40.218,35.629 40.066,35.613C39.914,35.598 39.787,35.534 39.684,35.423C39.582,35.313 39.53,35.179 39.528,35.02C39.526,34.862 39.585,34.727 39.706,34.615ZM27.603,46.087L27.093,45.538L25.117,47.371L27.695,50.149L28.37,49.522L27.362,48.436L28.39,47.482L27.908,46.963L26.881,47.917L26.303,47.294L27.603,46.087ZM31.07,49.41C30.515,49.118 29.965,49.222 29.422,49.723C29.115,50.005 28.949,50.313 28.926,50.647C28.902,50.981 29.004,51.271 29.231,51.518C29.455,51.761 29.7,51.878 29.966,51.866C30.233,51.855 30.576,51.723 30.996,51.472C31.222,51.337 31.388,51.261 31.495,51.245C31.603,51.229 31.694,51.261 31.768,51.342C31.842,51.422 31.869,51.525 31.849,51.649C31.829,51.774 31.744,51.904 31.596,52.041C31.288,52.325 30.981,52.368 30.676,52.172L30.2,52.861C30.497,53.057 30.806,53.128 31.124,53.073C31.442,53.019 31.744,52.861 32.028,52.6C32.406,52.252 32.608,51.897 32.632,51.537C32.657,51.177 32.554,50.872 32.324,50.622C32.177,50.462 31.999,50.359 31.79,50.313C31.582,50.266 31.385,50.274 31.2,50.336C31.015,50.399 30.756,50.532 30.421,50.734C30.221,50.856 30.075,50.916 29.985,50.914C29.895,50.912 29.819,50.878 29.758,50.812C29.605,50.645 29.656,50.444 29.913,50.208C30.153,49.987 30.412,49.951 30.688,50.102L31.07,49.41ZM32.073,42.954C32.187,42.707 32.317,42.33 32.461,41.822L33.936,43.411L34.469,43.986L35.088,43.359L34.575,42.818L32.43,40.507L31.958,40.945C32.03,41.317 31.892,41.796 31.543,42.383L32.073,42.954ZM30.627,44.183C29.877,43.544 29.168,43.533 28.5,44.153C28.115,44.51 27.935,44.926 27.961,45.399C27.986,45.873 28.194,46.32 28.583,46.739C28.998,47.187 29.438,47.431 29.904,47.471C30.369,47.511 30.785,47.361 31.153,47.02C31.453,46.741 31.626,46.42 31.672,46.055C31.719,45.69 31.608,45.322 31.34,44.952L30.674,45.499C30.939,45.904 30.937,46.232 30.667,46.482C30.502,46.636 30.315,46.694 30.107,46.655C29.9,46.617 29.634,46.423 29.311,46.075C28.75,45.471 28.64,45.011 28.98,44.696C29.276,44.421 29.611,44.475 29.985,44.858L30.627,44.183ZM34.625,48.71L34.029,49.195C34.211,49.466 34.208,49.687 34.021,49.859C33.925,49.947 33.811,49.987 33.679,49.978C33.548,49.969 33.362,49.834 33.121,49.573C32.76,49.181 32.699,48.874 32.939,48.654C33.134,48.474 33.354,48.499 33.6,48.728L34.134,48.176C33.909,47.966 33.644,47.862 33.342,47.863C33.039,47.864 32.763,47.98 32.512,48.21C32.201,48.497 32.044,48.825 32.041,49.196C32.039,49.567 32.185,49.913 32.481,50.234C32.776,50.555 33.102,50.727 33.461,50.751C33.819,50.775 34.143,50.654 34.433,50.387C34.699,50.142 34.848,49.867 34.879,49.562C34.91,49.258 34.825,48.974 34.625,48.71ZM33.724,45.843L33.137,46.383L35.687,49.155L36.273,48.615L35.209,47.458C35.032,47.266 34.954,47.106 34.974,46.979C34.994,46.851 35.041,46.753 35.117,46.684C35.175,46.63 35.239,46.603 35.309,46.602C35.379,46.602 35.444,46.622 35.502,46.663C35.56,46.705 35.653,46.795 35.78,46.933L36.844,48.09L37.449,47.533L36.203,46.179C36.035,45.996 35.887,45.876 35.76,45.818C35.633,45.76 35.493,45.746 35.339,45.776C35.186,45.806 35.04,45.885 34.902,46.012C34.643,46.249 34.557,46.527 34.643,46.843L33.724,45.843ZM38.776,42.526L38.31,42.955L39.121,44.536L37.661,43.552L37.114,44.055L37.952,45.597L36.465,44.652L35.834,45.232L38.357,46.698L38.862,46.233L37.972,44.615L39.511,45.636L40.043,45.146L38.776,42.526ZM41.898,41.734C41.524,41.327 41.156,41.117 40.796,41.104C40.436,41.092 40.124,41.207 39.86,41.45C39.568,41.719 39.421,42.039 39.419,42.411C39.417,42.782 39.566,43.131 39.866,43.457C40.068,43.677 40.287,43.822 40.525,43.894C40.762,43.966 40.989,43.977 41.208,43.927C41.426,43.878 41.637,43.759 41.841,43.571C42.31,43.14 42.402,42.617 42.12,42.003L41.534,42.467C41.691,42.719 41.669,42.938 41.468,43.124C41.359,43.223 41.232,43.272 41.086,43.269C40.939,43.266 40.799,43.192 40.664,43.045C40.64,43.018 40.611,42.986 40.579,42.948L41.898,41.734ZM40.253,42.599C40.021,42.292 40.019,42.035 40.247,41.825C40.459,41.63 40.704,41.664 40.982,41.928L40.253,42.599ZM41.133,38.922L40.528,39.478L41.085,40.083L41.69,39.527L41.133,38.922ZM41.848,39.699L41.243,40.256L43.13,42.307L43.735,41.75L41.848,39.699ZM46.015,39.652L44.803,38.335C44.52,38.027 44.271,37.876 44.055,37.881C43.84,37.885 43.634,37.977 43.44,38.157C43.334,38.254 43.258,38.368 43.211,38.499C43.163,38.629 43.169,38.82 43.228,39.071L42.908,38.724L42.346,39.242L44.233,41.292L44.838,40.736L43.778,39.584C43.49,39.27 43.451,39.016 43.664,38.82C43.727,38.762 43.797,38.731 43.872,38.728C43.947,38.726 44.013,38.745 44.071,38.786C44.13,38.828 44.223,38.918 44.351,39.058L45.41,40.209L46.015,39.652ZM44.57,35.865L43.965,36.421L46.515,39.193L46.838,38.896C46.732,38.677 46.681,38.531 46.683,38.457C46.903,38.519 47.078,38.534 47.208,38.502C47.338,38.47 47.472,38.39 47.61,38.263C47.875,38.019 47.988,37.735 47.948,37.409C47.908,37.083 47.741,36.761 47.447,36.441C47.142,36.11 46.834,35.912 46.522,35.847C46.211,35.783 45.937,35.859 45.701,36.076C45.471,36.287 45.394,36.543 45.47,36.843L44.57,35.865ZM46.373,37.824L46.012,37.432C45.87,37.278 45.79,37.132 45.771,36.994C45.752,36.857 45.791,36.743 45.89,36.652C45.976,36.573 46.086,36.541 46.221,36.553C46.357,36.566 46.559,36.718 46.826,37.009C47.062,37.265 47.188,37.467 47.204,37.615C47.221,37.764 47.179,37.884 47.079,37.976C46.995,38.054 46.889,38.083 46.762,38.066C46.634,38.048 46.505,37.967 46.373,37.824ZM49.77,34.492C49.395,34.084 49.028,33.874 48.668,33.862C48.308,33.85 47.996,33.965 47.732,34.208C47.439,34.477 47.292,34.797 47.291,35.169C47.289,35.54 47.438,35.889 47.738,36.215C47.94,36.435 48.159,36.58 48.396,36.652C48.634,36.723 48.861,36.735 49.079,36.685C49.297,36.636 49.509,36.517 49.713,36.329C50.181,35.898 50.274,35.375 49.991,34.761L49.406,35.224C49.563,35.477 49.541,35.696 49.339,35.882C49.231,35.981 49.104,36.03 48.957,36.027C48.811,36.024 48.671,35.949 48.536,35.803C48.511,35.776 48.483,35.744 48.45,35.706L49.77,34.492ZM48.125,35.357C47.893,35.05 47.891,34.792 48.118,34.583C48.331,34.388 48.576,34.422 48.854,34.686L48.125,35.357ZM51.589,34.525L50.821,33.69C50.668,33.524 50.568,33.371 50.521,33.233C50.474,33.095 50.467,32.976 50.5,32.875C50.534,32.774 50.612,32.667 50.735,32.554L50.186,31.957C50.139,31.993 50.101,32.024 50.071,32.052C49.861,32.245 49.844,32.523 50.021,32.885L49.669,32.504L49.115,33.014L51.002,35.064L51.589,34.525ZM52.65,29.847L52.297,29.464C52.233,29.503 52.171,29.55 52.112,29.604C51.929,29.772 51.844,29.92 51.857,30.047C51.87,30.174 51.924,30.301 52.019,30.428C51.789,30.529 51.581,30.666 51.395,30.838C51.099,31.109 50.923,31.382 50.865,31.654C50.808,31.927 50.867,32.159 51.042,32.35C51.257,32.583 51.532,32.639 51.866,32.516C51.694,32.877 51.698,33.156 51.879,33.352C52.023,33.509 52.222,33.552 52.475,33.479C52.299,33.758 52.295,33.989 52.464,34.172C52.591,34.31 52.768,34.358 52.996,34.315C53.224,34.271 53.546,34.059 53.961,33.676C54.404,33.269 54.652,32.921 54.707,32.631C54.761,32.341 54.702,32.102 54.529,31.913C54.408,31.782 54.266,31.71 54.104,31.697C53.942,31.683 53.791,31.72 53.65,31.807C53.51,31.893 53.275,32.073 52.945,32.347C52.713,32.541 52.557,32.653 52.478,32.683C52.398,32.714 52.326,32.694 52.261,32.623C52.203,32.56 52.189,32.476 52.221,32.372C52.342,32.297 52.458,32.211 52.566,32.111C52.87,31.831 53.051,31.559 53.106,31.295C53.162,31.031 53.101,30.802 52.923,30.609C52.79,30.464 52.616,30.384 52.4,30.37C52.314,30.23 52.337,30.098 52.471,29.975C52.515,29.935 52.574,29.892 52.65,29.847ZM51.69,31.169C51.806,31.063 51.922,31.013 52.036,31.021C52.151,31.03 52.246,31.074 52.321,31.156C52.4,31.242 52.437,31.344 52.432,31.462C52.427,31.579 52.37,31.687 52.262,31.787C52.039,31.992 51.832,31.99 51.64,31.781C51.556,31.689 51.517,31.588 51.524,31.478C51.531,31.368 51.586,31.265 51.69,31.169ZM52.899,33.292C52.917,33.276 52.942,33.258 52.976,33.237C53.005,33.217 53.057,33.173 53.132,33.105L53.252,32.991C53.553,32.713 53.752,32.556 53.848,32.521C53.944,32.485 54.016,32.493 54.065,32.546C54.128,32.615 54.133,32.704 54.078,32.811C54.024,32.919 53.893,33.068 53.686,33.259C53.527,33.404 53.379,33.52 53.24,33.605C53.101,33.691 52.989,33.687 52.904,33.595C52.862,33.549 52.844,33.493 52.852,33.426C52.859,33.359 52.875,33.315 52.899,33.292ZM38.315,36.185L37.858,35.549L36.108,37.173L37.461,38.849L38.072,38.445C38.032,38.214 38.098,38.019 38.271,37.859C38.394,37.744 38.537,37.691 38.701,37.698C38.864,37.706 39.001,37.769 39.112,37.888C39.218,38.002 39.27,38.139 39.268,38.297C39.266,38.455 39.197,38.597 39.061,38.723C38.814,38.952 38.546,38.974 38.257,38.788L37.732,39.446C38.36,39.842 38.97,39.766 39.561,39.217C39.902,38.901 40.082,38.564 40.1,38.204C40.119,37.845 39.994,37.521 39.726,37.232C39.484,36.971 39.199,36.84 38.872,36.837C38.544,36.835 38.254,36.95 38.003,37.183C37.758,37.411 37.634,37.673 37.632,37.971L37.103,37.311L38.315,36.185ZM52.991,38.856C52.616,38.445 52.247,38.232 51.884,38.218C51.522,38.205 51.208,38.319 50.941,38.563C50.646,38.832 50.497,39.154 50.494,39.528C50.491,39.902 50.64,40.254 50.941,40.583C51.143,40.804 51.363,40.951 51.601,41.024C51.84,41.097 52.069,41.109 52.289,41.06C52.508,41.011 52.721,40.892 52.928,40.704C53.4,40.272 53.495,39.746 53.213,39.127L52.622,39.592C52.78,39.846 52.757,40.067 52.553,40.253C52.444,40.353 52.315,40.401 52.168,40.397C52.021,40.394 51.88,40.319 51.745,40.171C51.72,40.144 51.691,40.111 51.659,40.073L52.991,38.856ZM51.333,39.72C51.101,39.411 51.099,39.152 51.329,38.942C51.543,38.746 51.79,38.781 52.069,39.048L51.333,39.72ZM54.833,38.884L54.255,38.251L53.621,38.829L54.2,39.462L54.833,38.884ZM54.862,33.725L54.312,34.227L55.557,36.76L53.17,35.271L52.472,35.909L55.868,37.938L56.572,37.295L54.862,33.725ZM58.081,35.916L57.503,35.283L56.87,35.861L57.448,36.495L58.081,35.916ZM9.468,3.215L2.531,10.071C4.318,11.75 7.621,15.756 7.837,22.47C8.054,29.184 1.394,34.003 1.394,34.003C3.328,42.667 14.389,50.03 14.389,50.03L28.521,36.386C33.421,35.33 34.679,34 36.291,32.541C39.702,29.455 40.162,25.448 40.162,25.448L59.113,7.337L54.89,3.303C51.885,4.819 50.206,6.389 43.519,6.47C36.589,6.555 32.067,1.841 32.067,1.841C29.414,4.196 26.49,6.254 20.345,6.497C14.34,6.736 9.468,3.215 9.468,3.215Z" style="fill:white;fill-rule:nonzero;"/>
    <path d="M16.654,32.529C10.562,27.596 9.62,18.658 14.553,12.565C19.485,6.472 28.425,5.532 34.518,10.464C40.611,15.397 41.55,24.336 36.618,30.428C31.685,36.52 22.747,37.462 16.654,32.529ZM27.296,32.3C26.759,32.124 26.075,31.711 25.35,31.125C24.473,30.415 23.672,29.555 23.191,28.814C22.342,28.881 19.429,28.806 18.19,28.398C17.716,29.376 17.309,30.704 17.162,31.372C17.436,31.754 17.684,32.167 17.946,32.603C17.947,32.605 17.948,32.608 17.948,32.61C20.368,34.262 23.17,35.023 25.935,34.938C26.534,34.11 27.057,33.024 27.296,32.3ZM17.987,11.726C18.575,10.684 19.461,9.764 20.626,8.985C18.523,9.805 16.597,11.166 15.074,13.047C14.714,13.49 14.387,13.951 14.094,14.426C14.855,13.581 16.245,12.285 17.987,11.726ZM28.131,8.318C26.653,8.026 25.14,7.988 23.66,8.194C24.722,8.207 25.54,8.408 26.187,8.615C26.794,8.468 27.444,8.369 28.131,8.318ZM15.982,22.743C17.096,21.452 18.527,20.413 20.034,19.802C19.978,18.782 19.915,15.85 20.828,13.941C20.762,13.879 20.68,13.81 20.583,13.732C19.912,13.189 18.673,12.379 18.136,12.057C16.043,12.713 14.429,14.557 13.981,15.11C13.937,15.163 13.904,15.207 13.876,15.242C13.26,16.697 12.98,18.883 13.022,20.234C13.355,20.731 13.809,21.219 14.376,21.679C14.843,22.055 15.382,22.412 15.982,22.743ZM12.083,21.751C12.146,25.078 13.439,28.365 15.884,30.874C16.216,30.929 16.549,31.004 16.849,31.119C17.022,30.419 17.406,29.18 17.874,28.223C17.187,27.375 16.025,24.171 15.876,23.094C14.543,22.37 13.504,21.518 12.849,20.617C12.704,20.83 12.559,21.047 12.427,21.242C12.295,21.435 12.18,21.608 12.083,21.751ZM31.096,15.702C31,15.586 30.846,15.401 30.639,15.173C30.278,14.773 29.697,14.174 28.974,13.589C28.121,12.898 27.263,12.379 26.424,12.047C24.988,12.394 23.275,13.038 21.193,14.016C20.328,15.73 20.337,18.442 20.383,19.535C20.388,19.644 20.391,19.744 20.397,19.832C20.581,19.985 20.772,20.142 20.962,20.296C21.82,20.991 22.608,21.568 23.37,22.127C23.835,22.467 24.276,22.786 24.718,23.127C24.815,23.109 24.984,23.079 25.207,23.031C25.74,22.922 26.266,22.789 26.772,22.643C27.832,22.333 29.303,21.803 30.31,21.021C30.674,19.415 31.063,17.559 31.128,15.743C31.119,15.731 31.106,15.717 31.096,15.702ZM27.502,31.989C29.212,31.475 31.046,30.872 32.88,29.933C32.92,29.836 32.985,29.675 33.062,29.466C33.193,29.123 33.384,28.58 33.566,27.944C33.852,26.944 34.17,25.504 34.074,24.269C33.863,24.096 33.625,23.9 33.345,23.673C32.99,23.386 32.614,23.086 32.232,22.778C31.641,22.304 31.035,21.818 30.47,21.355C28.722,22.669 25.857,23.284 24.863,23.467C24.583,24.773 24.195,26.11 23.825,27.404C23.711,27.796 23.595,28.2 23.482,28.599C23.943,29.317 24.721,30.152 25.575,30.844L25.577,30.846L25.531,30.904L25.535,30.906L25.581,30.849C26.308,31.437 27.004,31.851 27.502,31.989ZM26.666,11.756C27.506,12.103 28.357,12.625 29.2,13.309C30.261,14.166 31.036,15.06 31.37,15.469C32.615,15.138 34.684,15.228 35.496,15.475C35.523,13.848 34.922,12.35 34.495,11.5C34.328,11.348 34.154,11.201 33.978,11.058C32.583,9.929 31.031,9.126 29.417,8.638C29.261,8.637 29.107,8.636 28.956,8.639C28.074,8.658 27.246,8.75 26.486,8.916C26.814,9.527 26.873,10.459 26.666,11.756ZM35.185,12.163C35.551,13.081 35.915,14.35 35.85,15.684C36.662,16.615 37.503,19.762 37.58,21.011C38.05,20.938 38.502,20.851 38.938,20.749C38.762,17.609 37.487,14.54 35.185,12.163ZM38.954,21.116C38.5,21.218 38.028,21.309 37.542,21.381C36.919,22.794 35.372,23.824 34.44,24.338C34.575,26.54 33.537,29.281 33.233,30.022C33.566,30.32 34.183,30.899 34.57,31.441C35.064,30.989 35.534,30.498 35.967,29.961C38.071,27.362 39.045,24.216 38.954,21.116Z" style="fill:white;fill-rule:nonzero;"/>
</svg>
