<?xml version="1.0" encoding="UTF-8" standalone="no"?>
<!DOCTYPE svg PUBLIC "-//W3C//DTD SVG 1.1//EN" "http://www.w3.org/Graphics/SVG/1.1/DTD/svg11.dtd">
<svg width="100%" height="100%" viewBox="0 0 204 204" version="1.1" xmlns="http://www.w3.org/2000/svg" xmlns:xlink="http://www.w3.org/1999/xlink" xml:space="preserve" xmlns:serif="http://www.serif.com/" style="fill-rule:evenodd;clip-rule:evenodd;stroke-linejoin:round;stroke-miterlimit:2;">
    <path d="M101.7,203.3C101.2,203.3 100.7,203.2 100.3,203.1C98.6,202.6 59.4,190.7 36.5,173.4C13.8,156.2 2.8,142.9 2.3,142.3C0.7,140.3 0.8,137.5 2.6,135.7C2.8,135.5 19.9,117.2 19.9,87.1C19.9,55.4 15.7,37.1 15.6,36.9C15.2,35.3 15.6,33.7 16.7,32.5C17.7,31.3 19.3,30.6 20.9,30.8L22.2,30.8C25.4,30.8 36.2,30.3 42.8,23.7C50.6,15.9 50.5,8.4 50.5,8C50.4,5.3 52.4,3 55.1,2.8L80.3,0.8C94.5,-0.4 109,-0.4 123.3,0.8L148.5,2.8C151.2,3 153.2,5.3 153.1,8C153.1,8.3 153,15.8 160.8,23.6C167.4,30.2 178.2,30.7 181.4,30.7L182.8,30.7C184.4,30.6 185.9,31.2 187,32.5C188,33.7 188.4,35.3 188.1,36.9C188.1,37.1 183.8,55.5 183.8,87.1C183.8,117.4 200.9,135.5 201.1,135.7C202.9,137.5 203,140.4 201.4,142.3C200.9,142.9 189.9,156.2 167.2,173.4C144.3,190.8 105,202.6 103.4,203.1C102.6,203.3 102.2,203.3 101.7,203.3ZM8.6,140.8C13.3,145.8 23.6,156.2 39.7,168.4C59.7,183.6 94.1,195 101.7,197.3C109.3,194.9 143.7,183.5 163.7,168.4C179.8,156.2 190.2,145.8 194.8,140.8C188.9,133.1 176.9,114.1 176.9,86.4C176.9,62.8 179,46.2 180.5,37.7C173.8,37.1 163.5,34.9 156,27.4C148.9,20.3 146.3,13 145.4,8.3L123.4,6.5C109,5.4 94.4,5.4 80,6.6L58,8.4C57.1,13.1 54.5,20.4 47.4,27.5C39.9,35 29.7,37.2 22.9,37.8C24.3,46.2 26.5,62.9 26.5,86.5C26.5,114.1 14.4,133.2 8.6,140.8Z" style="fill:rgb(80,80,80);fill-rule:nonzero;"/>
    <path d="M81.8,49L81.8,47.5C81.8,46.1 82.3,44.9 83.2,43.9C84.2,42.8 86.3,42.2 87.9,43.5C88.6,42.9 89.3,42.3 89.9,41.6C91.3,40.1 92.9,38.9 94.7,38C96.2,37.3 97.8,36.8 99.4,37.3C99.9,37.4 100.3,37.8 100.7,38C101.1,38.2 101.6,38.4 102,38.4C103.3,38.4 104.6,38.5 105.9,38.9C107.3,39.3 108.1,40.3 108.5,41.7C109.5,41.8 110.5,41.9 111.5,42C113.8,42.1 116.2,42.3 118.3,43.3C119.7,43.9 120.8,45 121.1,46.6C121.3,47.7 121.5,48.8 121.7,49.9C121.8,50.4 122,50.6 122.4,50.8C123.2,51.1 123.9,51.7 124.6,52.1C124.9,52.3 125.1,52.5 125.4,52.7C126.5,53.7 126.6,55 126.5,56.3C126.5,57.3 126.9,57.8 127.7,58.2C128.6,58.7 129.5,59.2 129.8,60.3C129.8,60.4 129.9,60.5 130,60.6C130.8,61 131.6,61.5 132.4,61.6C134.5,62 135.6,63.6 135.8,65.3C135.9,66 135.5,66.8 135.2,67.4C134.7,68.3 134.1,69.1 133.5,69.9C133.4,70.1 133.5,70.5 133.7,70.7C134,71 134.4,71.3 134.8,71.6C135,71.7 135.2,71.9 135.2,72.1C135.4,73.4 136.2,74.4 136.1,75.8C136,76.7 136,76.7 137,76.7C137.6,76.7 138.2,76.5 138.7,76.8C139.3,77.1 140,77.3 140.4,78C140.8,78.8 140.7,79.3 140.2,80C139.8,80.5 139.6,81 139.2,81.5C138.5,82.3 137.7,83 137,83.8C136.9,83.9 136.9,84 136.7,84.2C137.1,84.3 137.5,84.3 137.8,84.3C138.9,84.3 139.7,84.7 140.3,85.7C140.9,86.7 140.8,87.5 140,88.3C139.8,88.5 139.6,88.7 139.6,88.8C139.7,90.1 138.6,90.3 137.9,90.8C137.4,91.1 137.1,91.4 137.2,92C137.3,93.1 137.4,94 138.4,94.7C139.3,95.3 139.4,96.3 138.8,97.2C138.2,98 138.2,98.1 139,98.8C139.4,99.2 139.7,99.6 140.2,100C140.7,100.5 141.3,100.9 141.8,101.3C142,101.5 142,101.9 142,102.1C142,103.3 142.3,103.9 143.2,104.2C144,104.4 144.8,104.9 145.1,105.7C145.2,106.1 145.2,106.6 145,107C144.8,107.6 144.3,108.1 144,108.6C143.6,109.3 143,109.5 142.3,109.7C142,109.8 141.7,109.9 141.5,110.1C141,110.8 140.4,110.9 139.7,110.9C138.5,110.9 137.3,111 136.2,110.4C135.5,110 135.1,110.8 134.6,111.1C134.2,111.3 133.8,111.6 133.4,111.8C133.3,111.8 133.1,111.6 133,111.5L133,111.2C132.5,111.5 132,111.7 131.5,112.1C130.1,113.2 128.7,113 127.8,111.5C127.6,111.2 127.3,111 127,110.7C126.1,109.7 125.2,108.8 124.3,107.8C123.5,106.8 123,106.7 121.7,107.1C120.8,107.4 119.3,106.2 119.2,105.1C119.1,104.6 119.2,104 119.3,103.5C119.4,103 119.2,102.8 118.7,102.8L117.9,102.8C117.3,102.8 116.9,102.7 116.5,102.1C116.2,101.7 115.8,101.3 115.4,100.9C114.6,101.7 114.1,102.6 113.8,103.6C113.2,105.8 113.2,108 113.1,110.2C113.1,110.9 112.7,111.5 112.8,112.3C113.1,113.8 113.2,115.4 113.4,117L113.4,117.9C113.3,118.7 113.3,119.4 113.1,120.2C112.8,121.3 112.5,122.4 112.2,123.5C112,124.1 112.1,124.8 111.9,125.3C111.5,126.4 111.5,127.4 111.5,128.5C111.6,129.5 112.1,130.2 112.8,130.8C114.1,131.9 115.2,133.2 115,135.1C114.9,136.1 115.4,137 116.1,137.7C116.3,137.9 116.6,138.1 116.6,138.3C116.6,139.3 117.5,139.5 118.1,140C119.4,141.1 121,141.7 122.3,142.8C122.8,143.2 123.7,143.2 124.4,143.4C125.5,143.7 126.5,144.3 126.9,145.3C127.2,146.1 127.8,147.1 127.1,148C126.9,148.2 126.6,148.4 126.2,148.8C126.2,148 126.1,147.4 126.1,146.8C126,145.6 125,144.9 123.8,145.2C123.3,145.4 122.8,145.4 122.3,145.1C121,144.4 119.6,143.8 118.3,143.1C117.7,142.8 117.3,142.2 116.8,141.9C116.3,141.5 115.7,141.2 115.1,141C113.2,140.2 111.6,139.1 110.1,137.8C109.7,137.5 109.2,137.2 108.8,137.1C107.8,136.8 106.7,136.6 105.7,136.3C104.5,135.9 103.7,136.6 102.8,137.2C102.4,137.5 102,137.9 101.7,138.3C101.3,138.8 101.1,139.3 101.1,140C101.1,141.4 100.9,142.8 100.8,144.3C100.7,145.9 100.5,147.6 100.5,149.2C100.5,149.8 100.7,150.4 101,150.9C101.5,151.9 102.1,152.9 102.8,153.8C103.4,154.6 103.2,155.3 103.1,156.1C103,156.7 103.1,157.4 103.3,157.9C103.5,158.2 104,158.4 104.5,158.6C105.2,158.9 106,159 106.8,159.3C107.3,159.5 107.8,159.8 108.3,160.1C108.6,160.3 108.9,160.4 109.1,160.6C109.9,161.8 111.2,161.8 112.3,162.2C113.3,162.5 113.7,163.4 114.3,164.1C114.7,164.5 115,165 114.9,165.6C114.9,165.8 114.8,166 114.7,166C114.5,166 114.3,166 114.2,165.8C113.9,165.4 113.5,165 113.3,164.5C112.8,163.2 111.7,162.6 110.5,162.2C110.3,162.1 110.1,162.2 109.9,162.2C109.2,162.3 108.6,162.3 108.1,161.6C108,161.5 107.9,161.4 107.7,161.4C106.2,161 104.6,160.5 103.1,160.4C101.8,160.3 100.8,159.9 99.8,159.1C99.3,158.7 98.8,158.2 98.6,157.7C98.1,156.7 97.7,155.6 97.2,154.5C97,154.1 96.7,153.7 96.5,153.4C95.6,152 94.8,150.7 93.9,149.3C93.7,149 93.7,148.6 93.5,148.2L93.5,148.1C92.7,147.1 92.6,145.8 92.1,144.7C92,144.5 91.9,144.2 91.8,143.9C91.6,143.3 91.4,142.6 91.1,142C90.6,141.1 90,140.1 89.3,139.3C88.8,138.7 86.9,138.5 86.2,139C84.4,140.3 82.7,141.5 81,142.9C80.5,143.3 80.2,144 79.9,144.6C79.2,145.7 78.5,146.6 77.2,147C76.1,147.3 75,147.9 73.9,148.3C73.7,148.4 73.4,148.4 73.2,148.4C73,148.7 72.8,149.1 72.5,149.4C72.4,149.5 72,149.5 71.8,149.6C71.9,149.2 71.9,148.7 72.1,148.5C73.1,147.7 74.2,147 75.1,146.1C75.5,145.7 75.4,144.9 75.5,144.3C75.8,142.5 76.6,141 78,139.8C78.3,139.5 78.8,139.3 79.2,139.1C80.1,138.8 80.4,138 80.6,137.1C80.8,136 81.1,134.9 81.3,133.8C81.5,133.1 81.6,132.3 81.8,131.6C81.9,131.4 82,131.1 82.1,131C83.4,129.7 84.6,128.4 85.6,126.8C85.8,126.4 85.9,125.8 86,125.4C86.7,123.3 87.1,121.2 86.9,119C86.9,118.8 86.9,118.5 86.8,118.3C86.2,117.2 86.3,115.9 86.2,114.7C86.2,114.2 85.9,113.8 86,113.2C86.3,111.9 86.9,110.9 87.7,109.9C88.5,108.9 88.4,108 87.2,107.6C87,107.5 86.5,107.7 86.3,107.9C84.9,109.5 83.4,109.5 81.6,108.9C81,108.7 80.5,108.1 79.9,107.7C79.8,107.6 79.6,107.4 79.5,107.5C79.4,107.6 79.2,107.8 79.2,107.9C79.2,108.7 78.6,108.9 78,109.2C76.7,110 75.4,109.5 74.1,109.6C73.6,109.6 73.1,109.9 72.7,110.1C72,110.4 71.4,111 70.5,110.4C70.1,110.1 69.5,110 69,109.8C68.8,109.7 68.4,109.7 68.2,109.9C67.5,110.6 65.7,110.3 65.2,109.5C64.3,108.2 63.3,106.9 63.7,105.1C63.7,104.9 63.6,104.6 63.6,104.6C63.4,104.6 63.2,104.6 63,104.7C62.3,105.1 61.5,105.6 60.8,106.1C60.7,106.1 60.6,106.2 60.5,106.2C59.1,106.4 57.3,104.8 57.1,103.4C57.1,103.1 57.2,102.7 57.4,102.4C58,100.8 58.8,99.4 60.7,98.9C61.6,98.7 62.4,98.5 63.2,98.5C63.7,98.5 64.1,98.3 64,97.7C63.8,96.4 64.5,95.3 65.1,94.3C65.7,93.3 65.6,92.5 64.6,92C63.2,91.2 62.9,90.4 63,88.8C63.1,87.6 63.5,86.6 64.2,85.7C64.4,85.5 64.4,85.3 64.5,85.2C63.6,84.3 62.8,83.5 62,82.6C61.9,82.5 61.9,82.3 61.9,82.2C61.9,81.6 61.8,81.1 61.9,80.5C62,79.8 61.6,79.4 61.1,78.9C60.4,78.2 59.5,77.6 59.6,76.5C59.6,76 60,75.6 60.2,75.2C60.7,74.1 61.3,73 61.8,72C61.9,71.8 62.1,71.6 62.3,71.5C63.4,70.9 63.3,69.7 63.6,68.8C63.7,68.4 64,67.9 64.4,67.6C64.8,67.2 64.9,66.8 64.6,66.5C63.2,65.1 63.6,63.5 63.6,61.8C63.6,61.4 63.9,60.9 64.2,60.7C65.4,60.3 66.6,59.8 67.9,59.6C69.6,59.4 70.8,58.2 70.6,56.4C70.5,55.6 70.4,54.8 70.3,54C70.2,53.5 70.8,52.7 71.3,52.5C71.6,52.4 72,52.2 72.3,52.1C72.6,52 73,52.1 73.3,52.1C73.8,52.2 74.2,52.4 74.7,52.4C75.4,52.4 75.4,51.7 75.4,51.2C75.4,50.1 75.7,49.4 76.7,49.1C77.5,48.8 78.4,48.8 79.2,48.7C80.7,48.8 81.2,48.9 81.8,49ZM101.8,109.4C103,109.4 103.2,109.2 103.4,108.4C103.6,107.5 103.9,106.5 104.2,105.6C104.3,105.1 104.5,104.5 104.5,104C104.4,103.3 104.2,102.7 104,102.1C103.8,101.4 103.7,100.6 103.5,99.9C103.3,99.1 102.8,98.4 102.9,97.4C103.1,95.3 103.1,93.1 103.2,91C103.2,90.3 103,90 102.3,90.2C102.1,90.3 101.8,90.4 101.6,90.5C100.7,91.3 99.6,91.5 98.6,91.5C97.5,91.5 97,92 96.5,92.7C96.1,93.3 95.7,94.1 94.8,94.1C93.2,94.2 92.2,95.1 91.2,96.1C91,96.3 90.9,96.7 91,97C91.4,98 91.9,99 92.4,100C92.9,101 93.5,102.1 94,103.1C94.5,104 94.8,105.1 95.8,105.7C97.1,106.6 98.3,107.5 99.6,108.3C100.3,109 101,109.5 101.8,109.4ZM104.8,90.2C105.2,91.7 105.6,93.2 106.1,94.7C106.2,95.1 106.6,95.4 106.7,95.7C107,97.1 108,98 108.8,99C109.4,99.7 110.1,99.6 110.6,98.9C111.3,97.8 112,96.7 112.6,95.5C113,94.6 113.4,93.6 113.3,92.5C113.3,92.3 113.3,92 113.4,91.9C114,91.1 114.6,90.4 115.1,89.6C115.3,89.3 115.4,89 115.5,88.7C115.2,88.6 114.9,88.5 114.6,88.4L114.5,88.4C113.2,88.6 112,88.6 110.7,88.2C110.5,88.1 110.3,88.2 110,88.3C108.6,88.6 107.2,89 105.7,89.3C105.1,89.3 104.8,89.5 104.8,90.2ZM95.2,107.2C95.2,107.7 95.1,108.1 95.1,108.5C95.2,109 95.4,109.4 95.6,109.9C95.9,110.8 96.1,111.7 96.5,112.5C97.1,113.6 97.9,114.6 98.3,115.7C98.7,116.7 99.4,117.3 100.1,118C100.6,118.5 101.8,118.4 102.1,117.9C102.4,117.3 102.6,116.8 102.7,116.2C103,114.7 102.4,113.4 101.9,112C101.8,111.7 101.5,111.4 101.2,111.1C101,110.8 100.7,110.6 100.4,110.3C99.6,109.6 98.9,108.8 98.1,108.2C97.4,107.8 96.6,107.6 95.8,107.4C95.7,107.4 95.5,107.3 95.2,107.2Z" style="fill:rgb(80,80,80);fill-rule:nonzero;"/>
</svg>
