<?xml version="1.0" encoding="UTF-8" standalone="no"?>
<!DOCTYPE svg PUBLIC "-//W3C//DTD SVG 1.1//EN" "http://www.w3.org/Graphics/SVG/1.1/DTD/svg11.dtd">
<svg width="100%" height="100%" viewBox="0 0 1114 285" version="1.1" xmlns="http://www.w3.org/2000/svg" xmlns:xlink="http://www.w3.org/1999/xlink" xml:space="preserve" xmlns:serif="http://www.serif.com/" style="fill-rule:evenodd;clip-rule:evenodd;stroke-linecap:round;stroke-miterlimit:10;">
    <g>
        <path d="M140.9,285C140.2,285 139.5,284.9 138.9,284.7C136.5,284 81.6,267.3 49.5,243.1C17.7,219 2.3,200.4 1.6,199.5C-0.6,196.7 -0.5,192.8 2,190.3C2.3,190 26.2,164.4 26.2,122.2C26.2,77.8 20.3,52.1 20.2,51.9C19.6,49.7 20.2,47.4 21.7,45.7C23.1,44 25.3,43 27.6,43.3L29.4,43.3C33.9,43.3 49,42.6 58.3,33.4C69.2,22.5 69.1,12 69.1,11.4C69,7.6 71.8,4.4 75.5,4.1L110.8,1.3C130.7,-0.4 151,-0.4 171.1,1.3L206.4,4.1C210.2,4.4 213,7.6 212.8,11.4C212.8,11.8 212.7,22.3 223.6,33.3C232.8,42.5 248,43.2 252.5,43.2L254.5,43.2C256.7,43.1 258.8,43.9 260.4,45.7C261.8,47.4 262.4,49.6 261.9,51.9C261.9,52.2 255.9,78 255.9,122.2C255.9,164.7 279.9,190 280.1,190.3C282.6,192.8 282.8,196.9 280.5,199.5C279.8,200.3 264.4,219 232.6,243.1C200.5,267.5 145.4,284 143.2,284.7C142.1,285 141.6,285 140.9,285ZM10.4,197.4C17,204.4 31.4,219 54,236.1C82,257.4 130.2,273.4 140.9,276.6C151.5,273.2 199.7,257.3 227.8,236.1C250.4,219 264.9,204.4 271.4,197.4C263.1,186.6 246.3,160 246.3,121.2C246.3,88.1 249.2,64.9 251.3,53C241.9,52.2 227.5,49.1 217,38.6C207.1,28.7 203.4,18.4 202.1,11.8L171.3,9.3C151.1,7.8 130.7,7.8 110.5,9.4L79.7,11.9C78.4,18.5 74.8,28.7 64.8,38.7C54.3,49.2 40,52.3 30.4,53.1C32.4,64.9 35.4,88.3 35.4,121.3C35.5,160 18.5,186.8 10.4,197.4Z" style="fill:white;fill-rule:nonzero;"/>
        <path d="M113,68.8L113,66.7C113,64.7 113.7,63.1 115,61.7C116.4,60.2 119.3,59.3 121.6,61.1C122.6,60.3 123.6,59.4 124.4,58.4C126.4,56.3 128.6,54.6 131.1,53.4C133.2,52.4 135.4,51.7 137.7,52.4C138.4,52.5 139,53.1 139.5,53.4C140.1,53.7 140.8,54 141.3,54C143.1,54 144.9,54.1 146.8,54.7C148.8,55.3 149.9,56.7 150.4,58.6C151.8,58.7 153.2,58.9 154.6,59C157.8,59.1 161.2,59.4 164.1,60.8C166.1,61.6 167.6,63.2 168,65.4C168.3,66.9 168.6,68.5 168.8,70C168.9,70.7 169.2,71 169.8,71.3C170.9,71.7 171.9,72.6 172.9,73.1C173.3,73.4 173.6,73.7 174,73.9C175.5,75.3 175.7,77.1 175.5,78.9C175.5,80.3 176.1,81 177.2,81.6C178.5,82.3 179.7,83 180.1,84.5C180.1,84.6 180.2,84.8 180.4,84.9C181.5,85.5 182.6,86.2 183.8,86.3C186.7,86.9 188.3,89.1 188.6,91.5C188.7,92.5 188.2,93.6 187.8,94.4C187.1,95.7 186.3,96.8 185.4,97.9C185.3,98.2 185.4,98.7 185.7,99C186.1,99.4 186.7,99.8 187.2,100.3C187.5,100.4 187.8,100.7 187.8,101C188.1,102.8 189.2,104.2 189.1,106.2C189,107.5 189,107.5 190.4,107.5C191.2,107.5 192.1,107.2 192.8,107.6C193.6,108 194.6,108.3 195.2,109.3C195.8,110.4 195.6,111.1 194.9,112.1C194.3,112.8 194.1,113.5 193.5,114.2C192.5,115.3 191.4,116.3 190.4,117.4C190.3,117.5 190.3,117.7 190,118C190.6,118.1 191.1,118.1 191.5,118.1C193,118.1 194.2,118.7 195,120.1C195.8,121.5 195.7,122.6 194.6,123.7C194.3,124 194,124.3 194,124.4C194.1,126.2 192.6,126.5 191.6,127.2C190.9,127.6 190.5,128 190.6,128.9C190.7,130.4 190.9,131.7 192.3,132.7C193.6,133.5 193.7,134.9 192.9,136.2C192.1,137.3 192.1,137.5 193.2,138.4C193.8,139 194.2,139.5 194.9,140.1C195.6,140.8 196.4,141.4 197.1,141.9C197.4,142.2 197.4,142.7 197.4,143C197.4,144.7 197.8,145.5 199.1,145.9C200.2,146.2 201.3,146.9 201.8,148C201.9,148.6 201.9,149.3 201.7,149.8C201.4,150.6 200.7,151.3 200.3,152C199.7,153 198.9,153.3 197.9,153.5C197.5,153.6 197.1,153.8 196.8,154.1C196.1,155.1 195.3,155.2 194.3,155.2C192.6,155.2 190.9,155.3 189.4,154.5C188.4,153.9 187.9,155.1 187.2,155.5C186.6,155.8 186.1,156.2 185.5,156.5C185.4,156.5 185.1,156.2 184.9,156.1L184.9,155.7C184.2,156.1 183.5,156.4 182.8,157C180.8,158.5 178.9,158.3 177.6,156.2C177.3,155.8 176.9,155.5 176.5,155.1C175.2,153.7 174,152.4 172.7,151C171.6,149.6 170.9,149.5 169.1,150C167.8,150.4 165.7,148.7 165.6,147.2C165.5,146.5 165.6,145.7 165.7,145C165.8,144.3 165.6,144 164.9,144L163.8,144C163,144 162.4,143.9 161.8,143C161.4,142.4 160.8,141.9 160.3,141.3C159.2,142.4 158.5,143.7 158.1,145.1C157.3,148.2 157.3,151.3 157.1,154.3C157.1,155.3 156.5,156.1 156.7,157.2C157.1,159.3 157.3,161.5 157.5,163.8L157.5,165.1C157.4,166.2 157.4,167.2 157.1,168.3C156.7,169.8 156.3,171.4 155.8,172.9C155.5,173.7 155.7,174.7 155.4,175.4C154.8,176.9 154.8,178.3 154.8,179.9C154.9,181.3 155.6,182.3 156.6,183.1C158.4,184.6 160,186.5 159.7,189.1C159.6,190.5 160.3,191.8 161.2,192.7C161.5,193 161.9,193.3 161.9,193.5C161.9,194.9 163.2,195.2 164,195.9C165.8,197.4 168.1,198.3 169.9,199.8C170.6,200.4 171.9,200.4 172.8,200.6C174.3,201 175.7,201.9 176.3,203.3C176.7,204.4 177.6,205.8 176.6,207.1C176.3,207.4 175.9,207.7 175.3,208.2C175.3,207.1 175.2,206.2 175.2,205.4C175.1,203.7 173.7,202.7 172,203.2C171.3,203.5 170.6,203.5 169.9,203.1C168.1,202.1 166.1,201.3 164.3,200.3C163.5,199.9 162.9,199 162.2,198.6C161.5,198 160.7,197.6 159.8,197.3C157.1,196.2 154.9,194.6 152.8,192.8C152.2,192.4 151.5,192 151,191.8C149.6,191.4 148.1,191.1 146.7,190.7C145,190.1 143.9,191.1 142.6,192C142,192.4 141.5,193 141.1,193.5C140.5,194.2 140.3,194.9 140.3,195.9C140.3,197.9 140,199.8 139.9,201.9C139.8,204.1 139.5,206.5 139.5,208.8C139.5,209.6 139.8,210.5 140.2,211.2C140.9,212.6 141.7,214 142.7,215.3C143.5,216.4 143.3,217.4 143.1,218.5C143,219.3 143.1,220.3 143.4,221C143.7,221.4 144.4,221.7 145.1,222C146.1,222.4 147.2,222.6 148.3,223C149,223.3 149.7,223.7 150.4,224.1C150.8,224.4 151.2,224.5 151.5,224.8C152.6,226.5 154.4,226.5 156,227C157.4,227.4 158,228.7 158.8,229.7C159.4,230.3 159.8,231 159.6,231.8C159.6,232.1 159.5,232.4 159.3,232.4C159,232.4 158.7,232.4 158.6,232.1C158.2,231.5 157.6,231 157.3,230.3C156.6,228.5 155.1,227.6 153.4,227.1C153.1,227 152.8,227.1 152.6,227.1C151.6,227.2 150.8,227.2 150.1,226.3C150,226.2 149.8,226 149.5,226C147.4,225.4 145.2,224.7 143.1,224.6C141.3,224.5 139.9,223.9 138.5,222.8C137.8,222.2 137.1,221.5 136.8,220.8C136.1,219.4 135.5,217.9 134.8,216.3C134.5,215.7 134.1,215.2 133.8,214.8C132.5,212.8 131.4,211 130.2,209.1C129.9,208.7 129.9,208.1 129.6,207.6L129.6,207.5C128.5,206.1 128.3,204.3 127.6,202.7C127.5,202.4 127.3,202 127.2,201.6C126.9,200.8 126.6,199.8 126.2,198.9C125.5,197.6 124.7,196.2 123.7,195.1C123,194.3 120.3,194 119.4,194.7C116.9,196.5 114.5,198.2 112.1,200.2C111.4,200.8 111,201.7 110.6,202.6C109.6,204.1 108.6,205.4 106.8,206C105.3,206.4 103.7,207.3 102.2,207.8C101.9,207.9 101.5,207.9 101.2,207.9C100.9,208.3 100.6,208.9 100.2,209.3C100.1,209.4 99.5,209.4 99.2,209.6C99.3,209 99.3,208.3 99.6,208.1C101,207 102.5,206 103.8,204.7C104.4,204.1 104.2,203 104.4,202.2C104.8,199.7 105.9,197.6 107.9,195.9C108.3,195.5 109,195.2 109.6,194.9C110.9,194.5 111.3,193.4 111.6,192.1C111.9,190.6 112.3,189 112.6,187.5C112.9,186.5 113,185.4 113.3,184.4C113.4,184.1 113.6,183.7 113.7,183.6C115.5,181.8 117.2,180 118.6,177.7C118.9,177.1 119,176.3 119.2,175.7C120.2,172.8 120.7,169.8 120.5,166.7C120.5,166.4 120.5,166 120.4,165.7C119.6,164.2 119.7,162.3 119.6,160.7C119.6,160 119.2,159.4 119.3,158.6C119.7,156.8 120.6,155.4 121.7,154C122.8,152.6 122.7,151.3 121,150.8C120.7,150.7 120,150.9 119.7,151.2C117.7,153.4 115.6,153.4 113.1,152.6C112.3,152.3 111.6,151.5 110.7,150.9C110.6,150.8 110.3,150.5 110.1,150.6C110,150.7 109.7,151 109.7,151.2C109.7,152.3 108.9,152.6 108,153C106.2,154.1 104.4,153.4 102.5,153.6C101.8,153.6 101.1,154 100.5,154.3C99.5,154.7 98.7,155.6 97.4,154.7C96.8,154.3 96,154.1 95.3,153.9C95,153.8 94.5,153.8 94.2,154C93.2,155 90.7,154.6 90,153.4C88.7,151.6 87.3,149.8 87.9,147.2C87.9,146.9 87.8,146.5 87.8,146.5C87.5,146.5 87.2,146.5 87,146.6C86,147.2 84.9,147.9 83.9,148.6C83.8,148.6 83.6,148.7 83.5,148.7C81.5,149 79,146.7 78.7,144.8C78.7,144.4 78.8,143.8 79.1,143.4C79.9,141.2 81.1,139.2 83.7,138.5C85,138.2 86.1,137.9 87.2,137.9C87.9,137.9 88.5,137.6 88.3,136.8C88,135 89,133.4 89.8,132C90.6,130.6 90.5,129.5 89.1,128.8C87.1,127.7 86.7,126.6 86.9,124.3C87,122.6 87.6,121.2 88.6,120C88.9,119.7 88.9,119.4 89,119.3C87.7,118 86.6,116.9 85.5,115.7C85.4,115.6 85.4,115.3 85.4,115.1C85.4,114.3 85.3,113.6 85.4,112.7C85.5,111.7 85,111.2 84.3,110.5C83.3,109.5 82.1,108.7 82.2,107.1C82.2,106.4 82.8,105.8 83,105.3C83.7,103.8 84.5,102.2 85.2,100.8C85.3,100.5 85.6,100.2 85.9,100.1C87.4,99.3 87.3,97.6 87.7,96.3C87.8,95.7 88.3,95 88.8,94.6C89.4,94 89.5,93.5 89.1,93.1C87.1,91.1 87.7,88.9 87.7,86.5C87.7,85.9 88.1,85.2 88.5,85C90.2,84.4 91.9,83.7 93.7,83.5C96.1,83.2 97.8,81.5 97.5,79C97.4,77.9 97.2,76.8 97.1,75.6C97,74.9 97.8,73.8 98.5,73.5C98.9,73.4 99.5,73.1 99.9,72.9C100.3,72.8 100.9,72.9 101.3,72.9C102,73 102.6,73.3 103.3,73.3C104.3,73.3 104.3,72.3 104.3,71.6C104.3,70.1 104.7,69.1 106.1,68.7C107.2,68.3 108.5,68.3 109.6,68.1C111.4,68.5 112.1,68.7 113,68.8ZM141,153.4C142.7,153.4 143,153.1 143.2,152C143.5,150.7 143.9,149.3 144.3,148.1C144.4,147.4 144.7,146.6 144.7,145.9C144.6,144.9 144.3,144.1 144,143.2C143.7,142.2 143.6,141.1 143.3,140.1C143,139 142.3,138 142.5,136.6C142.8,133.7 142.8,130.6 142.9,127.6C142.9,126.6 142.6,126.2 141.6,126.5C141.3,126.6 140.9,126.8 140.6,126.9C139.3,128 137.8,128.3 136.4,128.3C134.9,128.3 134.2,129 133.5,130C132.9,130.8 132.4,132 131.1,132C128.9,132.1 127.5,133.4 126.1,134.8C125.8,135.1 125.7,135.6 125.8,136.1C126.4,137.5 127.1,138.9 127.8,140.3C128.5,141.7 129.3,143.2 130,144.6C130.7,145.9 131.1,147.4 132.5,148.2C134.3,149.5 136,150.7 137.8,151.8C138.9,152.9 139.9,153.6 141,153.4ZM145.2,126.5C145.8,128.6 146.3,130.7 147,132.8C147.1,133.4 147.7,133.8 147.8,134.2C148.2,136.2 149.6,137.4 150.7,138.8C151.5,139.8 152.5,139.6 153.2,138.7C154.2,137.2 155.2,135.6 156,133.9C156.6,132.6 157.1,131.2 157,129.7C157,129.4 157,129 157.1,128.9C157.9,127.8 158.8,126.8 159.5,125.7C159.8,125.3 159.9,124.9 160.1,124.4C159.7,124.3 159.3,124.1 158.8,124L158.7,124C156.9,124.3 155.2,124.3 153.4,123.7C153.1,123.6 152.8,123.7 152.4,123.8C150.4,124.2 148.5,124.8 146.4,125.2C145.6,125.3 145.2,125.5 145.2,126.5ZM131.8,150.3C131.8,151 131.7,151.6 131.7,152.1C131.8,152.8 132.1,153.4 132.4,154.1C132.8,155.4 133.1,156.6 133.7,157.7C134.5,159.2 135.7,160.6 136.2,162.2C136.8,163.6 137.7,164.4 138.7,165.4C139.4,166.1 141.1,166 141.5,165.3C141.9,164.5 142.2,163.8 142.3,162.9C142.7,160.8 141.9,159 141.2,157C141.1,156.6 140.6,156.2 140.2,155.7C139.9,155.3 139.5,155 139.1,154.6C138,153.6 137,152.5 135.9,151.7C134.9,151.1 133.8,150.9 132.7,150.6C132.5,150.6 132.2,150.5 131.8,150.3Z" style="fill:white;fill-rule:nonzero;"/>
    </g>
    <g>
        <path d="M368.4,128.3C365.3,128.3 362.5,127.8 360,126.8C357.5,125.8 355.4,124.4 353.6,122.6C351.8,120.8 350.5,118.6 349.6,116C348.7,113.4 348.2,110.5 348.2,107.3C348.2,104 348.7,100.9 349.7,98.2C350.7,95.4 352.2,93.1 354,91.1C355.9,89.1 358.1,87.6 360.7,86.5C363.3,85.4 366.1,84.9 369.3,84.9C371.5,84.9 373.6,85.2 375.5,85.8C377.4,86.4 379.6,87.4 381.8,88.8L383,85.4L384.9,85.4L384.2,98L381.6,98C381.6,96.2 381.3,94.7 380.6,93.4C379.9,92.1 379,91 377.9,90.2C376.8,89.4 375.5,88.7 374.1,88.3C372.7,87.9 371.2,87.7 369.8,87.7C367.6,87.7 365.6,88.1 363.8,89C362,89.9 360.6,91.1 359.3,92.8C358.1,94.4 357.2,96.5 356.5,98.8C355.9,101.2 355.5,103.9 355.5,106.9C355.5,112.8 356.7,117.3 359.2,120.5C361.7,123.7 365.2,125.3 369.9,125.3C371.7,125.3 373.2,125.1 374.6,124.7C376,124.3 377.2,123.7 378.1,123C379.1,122.3 379.8,121.5 380.3,120.5C380.8,119.5 381,118.6 381,117.6C381,115.5 380.6,114 379.7,113.3C378.8,112.5 377.4,112.2 375.5,112.2L375.5,110L391.1,110L391.1,112.1C390.2,112.1 389.5,112.2 388.9,112.3C388.3,112.4 387.8,112.7 387.5,113.1C387.2,113.5 386.9,114 386.8,114.6C386.7,115.2 386.6,116 386.6,117L386.6,123.2C385.9,123.2 385.3,123.2 384.7,123.3C384.1,123.4 383.5,123.5 382.9,123.7C382.3,123.9 381.6,124.2 380.8,124.5C380,124.8 379.2,125.3 378.1,125.9C376.8,126.6 375.3,127.2 373.7,127.7C372.2,128 370.4,128.3 368.4,128.3Z" style="fill:white;fill-rule:nonzero;"/>
        <path d="M405,119C405,120.5 405,121.7 405.1,122.6C405.2,123.5 405.4,124.1 405.7,124.6C406,125.1 406.5,125.4 407,125.5C407.6,125.6 408.4,125.8 409.5,125.8L409.5,127.7L394.9,127.7L394.9,125.8C396,125.8 396.8,125.7 397.4,125.5C398,125.3 398.5,125 398.8,124.6C399.1,124.2 399.3,123.5 399.4,122.7C399.5,121.9 399.5,120.8 399.5,119.4L399.5,113C399.5,110.5 399.5,108.6 399.4,107.2C399.3,105.8 399.2,104.8 398.9,104.1C398.6,103.4 398.1,103 397.4,102.9C396.7,102.8 395.8,102.7 394.6,102.7L394.6,100.8L404.2,98.7L405,105.5L405.2,105.5C405.7,104.4 406.3,103.4 407,102.5C407.7,101.6 408.5,100.8 409.3,100.2C410.1,99.6 411,99.1 411.9,98.7C412.8,98.3 413.8,98.1 414.7,98.1C415.9,98.1 416.8,98.4 417.5,99C418.2,99.6 418.5,100.3 418.5,101.3C418.5,102.2 418.2,102.9 417.7,103.4C417.2,103.9 416.4,104.1 415.3,104.1C414.7,104.1 414.2,104 413.8,103.9C413.4,103.8 413,103.6 412.7,103.4C412.4,103.2 412.1,103.1 411.8,102.9C411.5,102.8 411.2,102.7 410.9,102.7C409.9,102.7 408.9,103.3 407.9,104.6C406.9,105.9 406.1,107.5 405.6,109.4C405.3,110.5 405.1,111.7 404.9,113C404.7,114.3 404.7,115.7 404.7,117.2L404.7,119L405,119Z" style="fill:white;fill-rule:nonzero;"/>
        <path d="M444.4,107.4C444.4,105.9 444.4,104.7 444.3,103.9C444.2,103 444,102.4 443.7,101.9C443.4,101.4 442.9,101.1 442.3,101C441.7,100.9 440.9,100.7 439.8,100.6L439.8,98.7L449.8,98.7L449.8,115.6C449.8,117.7 449.8,119.4 449.9,120.7C450,122 450,123 450.1,123.7C450.2,124.2 450.3,124.6 450.5,124.8C450.7,125.1 450.9,125.3 451.2,125.5C451.5,125.7 452,125.8 452.5,125.8C453,125.9 453.7,125.9 454.6,125.9L454.6,127.8L445.5,128.5L444.9,121.9L444.7,121.9C443.3,124.2 441.7,125.8 439.9,126.9C438.1,127.9 436.2,128.5 434.2,128.5C432.7,128.5 431.2,128.2 429.7,127.6C428.3,127 427.2,126.2 426.4,125.2C425.8,124.4 425.3,123.3 425.1,121.8C424.8,120.4 424.7,118.5 424.7,116.2L424.7,107.5C424.7,106 424.7,104.8 424.6,104C424.5,103.1 424.3,102.5 424,102C423.7,101.5 423.2,101.2 422.6,101.1C422,101 421.2,100.8 420.1,100.7L420.1,98.8L430.1,98.8L430.1,113.8C430.1,117.8 430.6,120.7 431.5,122.5C432.4,124.3 433.9,125.2 436,125.2C439.2,125.2 441.7,123.1 443.5,118.9C443.7,118.5 443.8,118.1 443.9,117.7C444,117.3 444.1,116.9 444.2,116.5C444.3,116.1 444.3,115.6 444.4,115C444.4,114.5 444.5,113.8 444.5,113L444.5,107.4L444.4,107.4ZM428.4,88.7C428.4,87.8 428.7,87 429.3,86.4C429.9,85.8 430.7,85.5 431.6,85.5C432.5,85.5 433.3,85.8 433.9,86.4C434.5,87 434.8,87.8 434.8,88.7C434.8,89.6 434.5,90.4 433.9,91C433.3,91.6 432.5,91.9 431.6,91.9C430.7,91.9 429.9,91.6 429.3,91C428.7,90.4 428.4,89.6 428.4,88.7ZM437.6,88.7C437.6,87.8 437.9,87 438.5,86.4C439.1,85.8 439.9,85.5 440.8,85.5C441.7,85.5 442.5,85.8 443.1,86.4C443.7,87 444,87.8 444,88.7C444,89.6 443.7,90.4 443.1,91C442.5,91.6 441.7,91.9 440.8,91.9C439.9,91.9 439.1,91.6 438.5,91C437.9,90.4 437.6,89.6 437.6,88.7Z" style="fill:white;fill-rule:nonzero;"/>
        <path d="M467.7,119.1C467.7,120.6 467.7,121.8 467.8,122.6C467.9,123.5 468.1,124.1 468.4,124.6C468.7,125.1 469.2,125.4 469.8,125.5C470.4,125.6 471.2,125.8 472.3,125.8L472.3,127.7L457.9,127.7L457.9,125.8C458.9,125.7 459.7,125.6 460.3,125.5C460.9,125.4 461.4,125.1 461.7,124.6C462,124.2 462.2,123.5 462.3,122.7C462.4,121.9 462.4,120.8 462.4,119.4L462.4,112.1C462.4,107.7 462.3,105.1 462.1,104.1C462,103.6 461.9,103.2 461.7,102.9C461.5,102.6 461.3,102.4 461,102.2C460.7,102 460.2,101.9 459.7,101.9C459.2,101.8 458.5,101.8 457.7,101.8L457.7,100L466.5,97.9L467.2,103.3L467.4,103.3C468.8,101.6 470.4,100.2 472.3,99.3C474.2,98.3 476.2,97.9 478.4,97.9C480.1,97.9 481.6,98.2 483,98.7C484.4,99.2 485.5,100 486.2,101C486.8,101.8 487.3,102.9 487.5,104.3C487.8,105.6 487.9,107.5 487.9,109.8L487.9,119C487.9,120.5 487.9,121.7 488,122.5C488.1,123.4 488.3,124 488.6,124.5C488.9,125 489.3,125.3 489.9,125.4C490.5,125.5 491.3,125.7 492.3,125.7L492.3,127.6L478.1,127.6L478.1,125.7C479.1,125.7 479.9,125.6 480.5,125.4C481.1,125.2 481.6,124.9 481.9,124.5C482.2,124.1 482.4,123.4 482.5,122.6C482.6,121.8 482.6,120.7 482.6,119.3L482.6,112C482.6,109.9 482.5,108.1 482.3,106.7C482.1,105.3 481.7,104.1 481.2,103.2C480.7,102.3 480.1,101.7 479.2,101.3C478.4,100.9 477.4,100.7 476.3,100.7C474.7,100.7 473.1,101.1 471.8,102C470.4,102.9 469.4,104 468.6,105.5C468.4,105.9 468.3,106.2 468.1,106.5C468,106.8 467.9,107.2 467.8,107.7C467.7,108.1 467.7,108.6 467.6,109.2C467.6,109.8 467.5,110.5 467.5,111.4L467.5,119.1L467.7,119.1Z" style="fill:white;fill-rule:nonzero;"/>
        <path d="M522.4,122.6C519.3,126.4 515.4,128.3 510.8,128.3C508.6,128.3 506.7,127.9 504.9,127.2C503.1,126.5 501.6,125.5 500.4,124.2C499.1,122.9 498.2,121.3 497.5,119.5C496.8,117.7 496.5,115.7 496.5,113.5C496.5,111.3 496.9,109.2 497.6,107.3C498.3,105.4 499.4,103.8 500.7,102.4C502,101 503.6,100 505.5,99.2C507.4,98.4 509.4,98 511.6,98C515.2,98 517.9,99 519.9,100.9C521.8,102.8 522.8,105.6 522.8,109.2C522.8,109.7 522.7,110 522.5,110.1C522.3,110.2 521.8,110.3 521.1,110.3L503,110.3C502.9,110.6 502.9,111 502.8,111.4C502.8,111.8 502.7,112.3 502.7,112.8C502.7,114.7 502.9,116.4 503.4,118C503.9,119.6 504.5,120.9 505.4,122C506.3,123.1 507.3,124 508.5,124.6C509.7,125.2 511,125.5 512.5,125.5C514,125.5 515.5,125.2 516.8,124.5C518.1,123.8 519.5,122.7 520.9,121.2L522.4,122.6ZM513.4,107.7C514.1,107.7 514.7,107.7 515.2,107.6C515.6,107.6 516,107.5 516.2,107.4C516.4,107.3 516.6,107.1 516.6,106.9C516.7,106.7 516.7,106.4 516.7,106.1C516.7,104.4 516.2,103.1 515.1,102.1C514,101.1 512.5,100.6 510.7,100.6C506.7,100.6 504.3,103 503.3,107.7L513.4,107.7Z" style="fill:white;fill-rule:nonzero;"/>
        <path d="M537.5,119C537.5,120.5 537.5,121.7 537.6,122.6C537.7,123.5 537.9,124.1 538.2,124.6C538.5,125.1 539,125.4 539.5,125.5C540.1,125.6 540.9,125.8 542,125.8L542,127.7L527.4,127.7L527.4,125.8C528.5,125.8 529.3,125.7 529.9,125.5C530.5,125.3 531,125 531.3,124.6C531.6,124.2 531.8,123.5 531.9,122.7C532,121.9 532,120.8 532,119.4L532,113C532,110.5 532,108.6 531.9,107.2C531.8,105.8 531.7,104.8 531.4,104.1C531.1,103.4 530.6,103 529.9,102.9C529.2,102.8 528.3,102.7 527.1,102.7L527.1,100.8L536.7,98.7L537.5,105.5L537.7,105.5C538.2,104.4 538.8,103.4 539.5,102.5C540.2,101.6 541,100.8 541.8,100.2C542.6,99.6 543.5,99.1 544.4,98.7C545.3,98.3 546.3,98.1 547.2,98.1C548.4,98.1 549.3,98.4 550,99C550.7,99.6 551,100.3 551,101.3C551,102.2 550.7,102.9 550.2,103.4C549.7,103.9 548.9,104.1 547.8,104.1C547.2,104.1 546.7,104 546.3,103.9C545.9,103.8 545.5,103.6 545.2,103.4C544.9,103.2 544.6,103.1 544.3,102.9C544,102.8 543.7,102.7 543.4,102.7C542.4,102.7 541.4,103.3 540.4,104.6C539.4,105.9 538.6,107.5 538.1,109.4C537.8,110.5 537.6,111.7 537.4,113C537.2,114.3 537.2,115.7 537.2,117.2L537.2,119L537.5,119Z" style="fill:white;fill-rule:nonzero;"/>
        <path d="M567.9,127.7L567.9,125.6C569.3,125.6 570.5,125.5 571.3,125.3C572.2,125.1 572.8,124.8 573.3,124.4C573.8,124 574.1,123.3 574.2,122.5C574.4,121.7 574.4,120.6 574.4,119.4L574.4,93.7C574.4,92.4 574.3,91.4 574.2,90.6C574.1,89.8 573.8,89.2 573.4,88.7C573,88.2 572.5,87.9 571.7,87.8C570.9,87.7 570,87.5 568.8,87.4L568.8,85.3L585.2,85.3C590.2,85.3 594,86.2 596.7,87.9C599.5,89.7 600.8,92.1 600.8,95.3C600.8,97.7 600,99.7 598.5,101.2C597,102.7 594.6,104 591.3,105L591.3,105.2C592.4,105.3 593.4,105.4 594.3,105.6C595.1,105.7 595.9,105.9 596.6,106.1C597.3,106.3 597.9,106.5 598.4,106.8C599,107.1 599.5,107.4 600.1,107.8C603.4,110.1 605,113 605,116.5C605,118.4 604.5,120.2 603.4,121.9C602.3,123.6 600.8,124.9 598.9,125.8C598.3,126.1 597.6,126.4 597,126.6C596.3,126.8 595.6,127 594.7,127.1C593.8,127.2 592.8,127.3 591.6,127.4C590.4,127.5 589.1,127.5 587.5,127.5L567.9,127.5L567.9,127.7ZM583.4,104.1C584.5,104.1 585.5,104.1 586.3,104C587.1,104 587.7,103.9 588.3,103.8C588.8,103.7 589.3,103.6 589.8,103.4C590.2,103.2 590.7,103 591.1,102.7C592.3,102 593.1,101.1 593.6,100.1C594.1,99.1 594.3,97.7 594.3,96.1C594.3,93.2 593.6,91.1 592.2,89.9C590.8,88.6 588.6,88 585.6,88L581.4,88C580.8,88 580.5,88.3 580.5,88.9L580.5,104.1L583.4,104.1ZM587.9,125.3C594.5,125.3 597.9,122.5 597.9,116.8C597.9,112.7 596.2,109.8 592.8,108.1C592.2,107.8 591.6,107.6 591.1,107.4C590.5,107.2 589.9,107.1 589.2,107C588.5,106.9 587.6,106.8 586.6,106.8C585.6,106.8 584.4,106.7 582.9,106.7L580.4,106.7L580.4,119C580.4,121.2 581,122.8 582.2,123.8C583.2,124.9 585.2,125.3 587.9,125.3Z" style="fill:white;fill-rule:nonzero;"/>
        <path d="M627.2,109.1L627.2,106.8C627.2,102.3 625.3,100.1 621.5,100.1C620.9,100.1 620.3,100.2 619.9,100.3C619.5,100.4 619.1,100.6 618.8,100.8C618.5,101.1 618.2,101.4 618,101.9C617.8,102.4 617.5,103 617.3,103.7C616.9,104.8 616.5,105.5 616.1,105.8C615.7,106.1 615.2,106.3 614.4,106.3C612.6,106.3 611.6,105.4 611.6,103.5C611.6,101.7 612.5,100.4 614.4,99.4C616.3,98.4 618.9,97.9 622.4,97.9C626.1,97.9 628.7,98.6 630.2,99.9C631.7,101.2 632.5,103.4 632.5,106.5L632.5,118.8C632.5,123 633.3,125.1 635,125.1C635.5,125.1 636,125 636.5,124.9C637,124.8 637.4,124.4 637.7,123.9L638.5,125.2C638.1,126 637.3,126.7 636.1,127.3C634.9,127.9 633.7,128.2 632.4,128.2C630.8,128.2 629.6,127.7 628.8,126.7C628,125.7 627.6,124.2 627.6,122.4L627.3,122.4C626.3,124.2 625,125.6 623.3,126.7C621.6,127.7 619.7,128.3 617.7,128.3C615.4,128.3 613.6,127.7 612.3,126.5C611,125.3 610.3,123.7 610.3,121.8C610.3,120.9 610.5,120.1 610.8,119.3C611.1,118.5 611.6,117.7 612.3,117C613,116.3 613.9,115.5 615.1,114.8C616.2,114.1 617.6,113.4 619.3,112.6L627.2,109.1ZM627.2,111.4C625.1,112.2 623.3,113 621.9,113.8C620.5,114.6 619.3,115.3 618.4,116.1C617.5,116.9 616.9,117.6 616.5,118.4C616.1,119.2 615.9,120 615.9,120.8C615.9,122 616.3,123 617.1,123.8C617.9,124.6 619,125 620.3,125C621.3,125 622.1,124.8 623,124.3C623.8,123.8 624.5,123.2 625.2,122.3C625.8,121.5 626.3,120.5 626.7,119.4C627.1,118.3 627.3,117.1 627.3,115.9L627.3,111.4L627.2,111.4Z" style="fill:white;fill-rule:nonzero;"/>
        <path d="M664,107.4C664,105.9 664,104.7 663.9,103.9C663.8,103 663.6,102.4 663.3,101.9C663,101.4 662.5,101.1 661.9,101C661.3,100.8 660.5,100.7 659.4,100.6L659.4,98.7L669.4,98.7L669.4,115.6C669.4,117.7 669.4,119.4 669.5,120.7C669.6,122 669.6,123 669.7,123.7C669.8,124.2 669.9,124.6 670.1,124.8C670.3,125.1 670.5,125.3 670.8,125.5C671.1,125.7 671.6,125.8 672.1,125.8C672.6,125.8 673.3,125.9 674.2,125.9L674.2,127.8L665.1,128.5L664.5,121.9L664.3,121.9C662.9,124.2 661.3,125.8 659.5,126.9C657.7,127.9 655.8,128.5 653.8,128.5C652.3,128.5 650.8,128.2 649.3,127.6C647.9,127 646.8,126.2 646,125.2C645.4,124.4 644.9,123.3 644.7,121.8C644.4,120.4 644.3,118.5 644.3,116.2L644.3,107.5C644.3,106 644.3,104.8 644.2,104C644.1,103.1 643.9,102.5 643.6,102C643.3,101.5 642.8,101.2 642.2,101.1C641.6,100.9 640.8,100.8 639.7,100.7L639.7,98.8L649.7,98.8L649.7,113.8C649.7,117.8 650.2,120.7 651.1,122.5C652,124.3 653.5,125.2 655.6,125.2C658.8,125.2 661.3,123.1 663.1,118.9C663.3,118.5 663.4,118.1 663.5,117.7C663.6,117.3 663.7,116.9 663.8,116.5C663.9,116.1 663.9,115.6 664,115C664,114.5 664.1,113.8 664.1,113L664.1,107.4L664,107.4Z" style="fill:white;fill-rule:nonzero;"/>
        <path d="M687.5,118.9C687.5,120.4 687.5,121.7 687.6,122.5C687.7,123.3 687.9,124 688.2,124.5C688.5,125 689,125.3 689.5,125.4C690.1,125.5 690.9,125.7 692,125.7L692,127.6L677.4,127.6L677.4,125.7C678.5,125.6 679.3,125.5 679.9,125.4C680.5,125.3 681,125 681.3,124.5C681.6,124.1 681.8,123.4 681.9,122.6C682,121.8 682,120.7 682,119.3L682,112.3C682,110.2 682,108.5 681.9,107.1C681.8,105.7 681.7,104.8 681.6,104.2C681.5,103.7 681.4,103.3 681.2,103.1C681.1,102.8 680.8,102.6 680.5,102.4C680.2,102.2 679.7,102.1 679.2,102.1C678.7,102 678,102 677.1,102L677.1,100.1L686.1,98L686.8,103.5L687.1,103.5C688.8,101.6 690.5,100.2 692.3,99.3C694.1,98.4 696.1,98 698.3,98C700.6,98 702.6,98.5 704.1,99.4C705.6,100.3 706.8,101.7 707.4,103.4L707.6,103.4C709,101.7 710.6,100.3 712.6,99.4C714.5,98.4 716.6,98 718.8,98C720.5,98 722.1,98.3 723.5,98.9C724.9,99.5 726,100.2 726.7,101.2C727.4,102 727.8,103.2 728.1,104.5C728.4,105.8 728.5,107.8 728.5,110.1L728.5,118.8C728.5,120.3 728.5,121.5 728.6,122.4C728.7,123.3 728.9,124 729.2,124.4C729.5,124.9 729.9,125.2 730.5,125.3C731.1,125.4 731.9,125.6 733,125.6L733,127.5L718.4,127.5L718.4,125.6C719.4,125.6 720.3,125.5 720.9,125.3C721.5,125.1 722,124.8 722.3,124.4C722.6,123.9 722.8,123.3 722.9,122.5C723,121.7 723,120.6 723,119.2L723,112.3C723,110.2 722.9,108.4 722.7,107C722.5,105.6 722.1,104.4 721.6,103.5C721.1,102.6 720.4,102 719.6,101.5C718.8,101.1 717.8,100.9 716.6,100.9C715,100.9 713.5,101.3 712.1,102.2C710.7,103.1 709.6,104.3 708.8,105.8C708.6,106.2 708.5,106.5 708.3,106.9C708.2,107.2 708.1,107.6 708,108.1C707.9,108.5 707.9,109 707.9,109.6L707.9,118.8C707.9,120.3 707.9,121.5 708,122.4C708.1,123.3 708.3,124 708.6,124.4C708.9,124.9 709.4,125.2 710,125.3C710.6,125.4 711.5,125.6 712.5,125.6L712.5,127.5L697.9,127.5L697.9,125.6C698.9,125.5 699.8,125.4 700.4,125.3C701,125.2 701.5,124.9 701.8,124.4C702.1,124 702.3,123.3 702.4,122.5C702.5,121.7 702.5,120.6 702.5,119.2L702.5,112.3C702.5,110.2 702.4,108.4 702.2,106.9C702,105.5 701.6,104.3 701.1,103.4C700.6,102.5 700,101.9 699.1,101.5C698.3,101.1 697.3,100.9 696.1,100.9C694.5,100.9 692.9,101.3 691.5,102.2C690.1,103.1 689,104.3 688.2,105.8C688,106.2 687.9,106.5 687.7,106.9C687.6,107.2 687.5,107.6 687.4,108.1C687.3,108.5 687.3,109 687.3,109.6L687.3,118.9L687.5,118.9Z" style="fill:white;fill-rule:nonzero;"/>
        <path d="M753.3,114.8L755.3,114.8C755.6,116.4 756,117.9 756.8,119.3C757.5,120.6 758.4,121.7 759.5,122.7C760.6,123.6 761.8,124.3 763.2,124.8C764.6,125.3 766.1,125.5 767.8,125.5C770.5,125.5 772.7,124.9 774.2,123.6C775.8,122.3 776.6,120.6 776.6,118.4C776.6,117.5 776.4,116.6 776.1,115.9C775.8,115.1 775.3,114.4 774.5,113.7C773.8,113 772.8,112.3 771.6,111.6C770.4,110.9 768.8,110.2 767,109.3C764.7,108.3 762.8,107.4 761.3,106.4C759.8,105.5 758.5,104.5 757.6,103.5C756.7,102.5 756,101.5 755.6,100.3C755.2,99.2 755,97.9 755,96.5C755,94.8 755.3,93.3 755.9,91.8C756.5,90.4 757.4,89.1 758.5,88.1C759.6,87.1 760.9,86.2 762.4,85.7C763.9,85.1 765.6,84.8 767.3,84.8C768.9,84.8 770.4,85.1 771.8,85.6C773.2,86.1 774.6,86.9 776,88.1L777.4,85.6L778.7,85.6L779.3,96.5L777.3,96.5C776.4,93.5 775.1,91.3 773.5,89.8C771.8,88.3 769.8,87.6 767.5,87.6C765.3,87.6 763.5,88.2 762.2,89.3C760.9,90.4 760.2,91.9 760.2,93.8C760.2,94.7 760.3,95.5 760.6,96.2C760.9,96.9 761.4,97.6 762,98.2C762.7,98.8 763.5,99.5 764.6,100.1C765.7,100.7 767,101.4 768.6,102.1C771.3,103.3 773.6,104.4 775.4,105.5C777.2,106.5 778.6,107.6 779.7,108.6C780.8,109.6 781.5,110.7 782,111.9C782.4,113.1 782.7,114.3 782.7,115.8C782.7,117.6 782.3,119.3 781.6,120.9C780.9,122.4 779.8,123.8 778.5,124.9C777.2,126 775.6,126.9 773.8,127.5C772,128.1 770,128.4 767.8,128.4C765.7,128.4 763.8,128.1 762.2,127.5C760.5,126.9 758.8,125.9 757.1,124.5L755.6,127.2L754.3,127.2L753.3,114.8Z" style="fill:white;fill-rule:nonzero;"/>
        <path d="M813.4,123.1C812.1,124.7 810.4,126 808.3,126.9C806.2,127.8 804,128.2 801.5,128.2C799.6,128.2 797.8,127.8 796.1,127.1C794.5,126.4 793.1,125.4 791.9,124.1C790.7,122.8 789.8,121.2 789.2,119.4C788.6,117.6 788.2,115.5 788.2,113.3C788.2,111 788.6,108.8 789.3,106.9C790,105 791.1,103.4 792.4,102.1C793.7,100.8 795.4,99.7 797.2,99C799,98.3 801.2,97.9 803.4,97.9C804.8,97.9 806.1,98 807.3,98.3C808.5,98.5 809.5,98.9 810.4,99.3C811.3,99.7 811.9,100.2 812.4,100.8C812.9,101.4 813.1,102.1 813.1,102.8C813.1,103.5 812.9,104.1 812.4,104.5C811.9,104.9 811.3,105.1 810.4,105.1C809.7,105.1 809.2,105 808.8,104.7C808.4,104.4 807.8,103.8 807.1,102.9C806.4,102.1 805.7,101.5 805,101.1C804.3,100.8 803.5,100.6 802.4,100.6C799.8,100.6 797.8,101.6 796.5,103.6C795.2,105.6 794.5,108.6 794.5,112.5C794.5,116.7 795.2,119.9 796.7,122.1C798.2,124.3 800.4,125.4 803.2,125.4C804.7,125.4 806.2,125.1 807.5,124.5C808.8,123.9 810.2,122.9 811.6,121.6L813.4,123.1Z" style="fill:white;fill-rule:nonzero;"/>
        <path d="M826.5,119C826.5,120.5 826.5,121.7 826.6,122.6C826.7,123.5 826.9,124.1 827.2,124.6C827.5,125.1 828,125.4 828.5,125.5C829.1,125.6 829.9,125.8 831,125.8L831,127.7L816.4,127.7L816.4,125.8C817.5,125.7 818.3,125.6 818.9,125.5C819.5,125.4 820,125.1 820.3,124.6C820.6,124.2 820.8,123.5 820.9,122.7C821,121.9 821,120.8 821,119.4L821,96.4C821,94.2 821,92.5 820.9,91.2C820.8,89.9 820.7,88.9 820.6,88.3C820.5,87.9 820.4,87.5 820.2,87.2C820,86.9 819.8,86.7 819.5,86.5C819.2,86.3 818.7,86.2 818.2,86.1C817.7,86 817,86 816.2,86L816.2,84.1L826.3,82L826.3,103L826.5,103C827,102.3 827.7,101.6 828.6,101C829.5,100.4 830.3,99.9 831.3,99.4C832.3,99 833.3,98.6 834.3,98.4C835.3,98.1 836.4,98 837.4,98C839.1,98 840.6,98.3 842,98.9C843.4,99.5 844.5,100.3 845.3,101.3C845.9,102.1 846.4,103.3 846.7,104.6C847,106 847.1,107.8 847.1,110.2L847.1,119C847.1,120.5 847.1,121.7 847.2,122.5C847.3,123.4 847.5,124 847.8,124.5C848.1,125 848.6,125.3 849.1,125.4C849.7,125.5 850.5,125.7 851.6,125.7L851.6,127.6L837,127.6L837,125.7C838,125.7 838.9,125.6 839.5,125.4C840.1,125.2 840.6,124.9 840.9,124.5C841.2,124.1 841.4,123.4 841.5,122.6C841.6,121.8 841.6,120.7 841.6,119.3L841.6,112.4C841.6,108.3 841.1,105.4 840.2,103.6C839.2,101.9 837.7,101 835.4,101C833.7,101 832.1,101.4 830.7,102.3C829.3,103.2 828.2,104.4 827.4,105.9C827.2,106.3 827.1,106.7 826.9,107C826.8,107.3 826.7,107.7 826.6,108.2C826.5,108.6 826.5,109.1 826.5,109.7L826.5,119Z" style="fill:white;fill-rule:nonzero;"/>
        <path d="M867.1,128.3L865.1,128.3L858,105.4C857.7,104.4 857.4,103.5 857.1,102.9C856.8,102.3 856.5,101.8 856.1,101.4C855.7,101 855.2,100.8 854.7,100.7C854.1,100.6 853.5,100.5 852.7,100.5L852.7,98.6L867.3,98.6L867.3,100.5C865.9,100.5 864.9,100.7 864.3,101C863.7,101.3 863.4,101.9 863.4,102.7C863.4,103.1 863.5,103.5 863.6,104C863.7,104.5 863.9,105.1 864,105.8L867.7,118.9L867.9,118.9L876,98.5L877.7,98.5L885,118.9L885.2,118.9L888.5,110C888.9,108.8 889.3,107.8 889.6,106.9C889.9,106.1 890.1,105.4 890.3,104.8C890.5,104.2 890.6,103.8 890.7,103.4C890.8,103 890.8,102.7 890.8,102.4C890.8,101.6 890.6,101.1 890.1,100.8C889.6,100.5 888.6,100.4 887.1,100.4L887.1,98.5L898.1,98.5L898.1,100.4C897.6,100.4 897.1,100.5 896.7,100.6C896.3,100.7 895.9,101.1 895.5,101.6C895.1,102.1 894.7,102.8 894.3,103.6C893.9,104.4 893.4,105.6 892.8,107.1L884.3,128.2L882.3,128.2L875.6,107.9L875.4,107.9L867.1,128.3Z" style="fill:white;fill-rule:nonzero;"/>
        <path d="M926.5,122.6C923.4,126.4 919.5,128.3 914.9,128.3C912.7,128.3 910.8,127.9 909,127.2C907.2,126.5 905.7,125.5 904.5,124.2C903.2,122.9 902.3,121.3 901.6,119.5C900.9,117.7 900.6,115.7 900.6,113.5C900.6,111.3 901,109.2 901.7,107.3C902.4,105.4 903.5,103.8 904.8,102.4C906.1,101 907.7,100 909.6,99.2C911.5,98.4 913.5,98 915.7,98C919.3,98 922,99 924,100.9C926,102.8 926.9,105.6 926.9,109.2C926.9,109.7 926.8,110 926.6,110.1C926.4,110.2 925.9,110.3 925.2,110.3L907.1,110.3C907,110.6 907,111 906.9,111.4C906.9,111.8 906.8,112.3 906.8,112.8C906.8,114.7 907,116.4 907.5,118C908,119.6 908.6,120.9 909.5,122C910.4,123.1 911.4,124 912.6,124.6C913.8,125.2 915.1,125.5 916.6,125.5C918.1,125.5 919.6,125.2 920.9,124.5C922.2,123.8 923.6,122.7 925,121.2L926.5,122.6ZM917.4,107.7C918.1,107.7 918.7,107.7 919.2,107.6C919.6,107.6 920,107.5 920.2,107.4C920.4,107.3 920.6,107.1 920.6,106.9C920.7,106.7 920.7,106.4 920.7,106.1C920.7,104.4 920.2,103.1 919.1,102.1C918,101.1 916.5,100.6 914.7,100.6C910.7,100.6 908.3,103 907.3,107.7L917.4,107.7Z" style="fill:white;fill-rule:nonzero;"/>
        <path d="M941.8,119C941.8,120.4 941.9,121.6 942,122.4C942.1,123.3 942.4,123.9 942.7,124.4C943,124.9 943.6,125.2 944.2,125.4C944.9,125.6 945.7,125.7 946.8,125.7L946.8,127.6L931,127.6L931,125.7C932.1,125.7 933,125.5 933.7,125.3C934.4,125.1 934.9,124.8 935.3,124.3C935.7,123.8 935.9,123.2 936.1,122.4C936.2,121.6 936.3,120.5 936.3,119.2L936.3,112.2C936.3,110.1 936.3,108.3 936.2,106.9C936.1,105.5 936,104.6 935.9,104.1C935.7,103.3 935.3,102.7 934.6,102.4C933.9,102.1 932.7,101.9 930.9,101.9L930.9,100L941.7,97.9L941.7,119L941.8,119ZM935.5,86.8C935.5,85.8 935.8,85 936.5,84.4C937.2,83.7 938,83.4 938.9,83.4C939.9,83.4 940.7,83.7 941.3,84.4C942,85.1 942.3,85.9 942.3,86.8C942.3,87.8 942,88.6 941.3,89.2C940.6,89.9 939.8,90.2 938.9,90.2C937.9,90.2 937.1,89.9 936.5,89.2C935.8,88.6 935.5,87.8 935.5,86.8Z" style="fill:white;fill-rule:nonzero;"/>
        <path d="M959.9,119.1C959.9,120.6 959.9,121.8 960,122.6C960.1,123.5 960.3,124.1 960.6,124.6C960.9,125.1 961.4,125.4 962,125.5C962.6,125.6 963.4,125.8 964.5,125.8L964.5,127.7L950.1,127.7L950.1,125.8C951.1,125.7 951.9,125.6 952.5,125.5C953.1,125.4 953.6,125.1 953.9,124.6C954.2,124.1 954.4,123.5 954.5,122.7C954.6,121.9 954.6,120.8 954.6,119.4L954.6,112.1C954.6,107.7 954.5,105.1 954.3,104.1C954.2,103.6 954.1,103.2 953.9,102.9C953.7,102.6 953.5,102.4 953.2,102.2C952.9,102 952.4,101.9 951.9,101.9C951.4,101.8 950.7,101.8 949.9,101.8L949.9,100L958.7,97.9L959.4,103.3L959.6,103.3C961,101.6 962.6,100.2 964.5,99.3C966.4,98.3 968.4,97.9 970.6,97.9C972.3,97.9 973.8,98.2 975.2,98.7C976.6,99.2 977.7,100 978.4,101C979,101.8 979.5,102.9 979.7,104.3C980,105.6 980.1,107.5 980.1,109.8L980.1,119C980.1,120.5 980.1,121.7 980.2,122.5C980.3,123.4 980.5,124 980.8,124.5C981.1,125 981.5,125.3 982.1,125.4C982.7,125.5 983.5,125.7 984.5,125.7L984.5,127.6L970.3,127.6L970.3,125.7C971.3,125.7 972.1,125.6 972.7,125.4C973.3,125.2 973.8,124.9 974.1,124.5C974.4,124.1 974.6,123.4 974.7,122.6C974.8,121.8 974.8,120.7 974.8,119.3L974.8,112C974.8,109.9 974.7,108.1 974.5,106.7C974.3,105.3 973.9,104.1 973.4,103.2C972.9,102.3 972.3,101.7 971.4,101.3C970.6,100.9 969.6,100.7 968.5,100.7C966.8,100.7 965.3,101.1 964,102C962.6,102.9 961.6,104 960.8,105.5C960.6,105.9 960.5,106.2 960.3,106.5C960.2,106.8 960.1,107.2 960,107.7C959.9,108.2 959.9,108.6 959.8,109.2C959.8,109.8 959.7,110.5 959.7,111.4L959.7,119.1L959.9,119.1Z" style="fill:white;fill-rule:nonzero;"/>
        <path d="M996.1,102.5L996.4,102.5C997.6,101 998.9,99.8 1000.3,99.1C1001.7,98.4 1003.4,98 1005.2,98C1007.2,98 1009,98.4 1010.7,99.2C1012.4,100 1013.9,101 1015.2,102.4C1016.5,103.8 1017.5,105.4 1018.2,107.2C1018.9,109.1 1019.3,111 1019.3,113.2C1019.3,115.4 1018.9,117.4 1018.2,119.2C1017.5,121.1 1016.5,122.7 1015.2,124C1013.9,125.4 1012.4,126.4 1010.7,127.2C1009,128 1007.1,128.4 1005.1,128.4C1003,128.4 1001.1,128 999.2,127.2C997.4,126.4 995.9,125.4 994.7,124.1L992.1,127.8L990.9,127.8L990.9,94.5C990.9,90.8 990.7,88.4 990.2,87.4C990.1,87.1 990,86.9 989.8,86.8C989.7,86.6 989.4,86.5 989.1,86.4C988.8,86.3 988.4,86.2 987.9,86C987.4,85.9 986.7,85.8 985.8,85.7L985.8,84.3L996.1,82.1L996.1,102.5ZM996.3,116.2C996.3,117.6 996.5,118.9 996.9,120C997.3,121.2 997.9,122.1 998.6,123C999.3,123.8 1000.2,124.5 1001.2,125C1002.2,125.5 1003.3,125.7 1004.5,125.7C1005.8,125.7 1006.9,125.4 1008,124.8C1009,124.2 1009.9,123.4 1010.7,122.3C1011.5,121.2 1012,119.9 1012.5,118.4C1012.9,116.9 1013.1,115.2 1013.1,113.3C1013.1,111.4 1012.9,109.7 1012.4,108.2C1012,106.6 1011.4,105.3 1010.6,104.2C1009.8,103.1 1008.9,102.2 1007.8,101.6C1006.7,101 1005.5,100.7 1004.3,100.7C1002.8,100.7 1001.5,101.1 1000.3,101.8C999.1,102.5 998.2,103.5 997.6,104.8C996.8,106.4 996.4,108.6 996.4,111.5L996.4,116.2L996.3,116.2Z" style="fill:white;fill-rule:nonzero;"/>
        <path d="M1050.6,122.6C1047.5,126.4 1043.6,128.3 1039,128.3C1036.8,128.3 1034.9,127.9 1033.1,127.2C1031.3,126.5 1029.8,125.5 1028.6,124.2C1027.3,122.9 1026.4,121.3 1025.7,119.5C1025,117.7 1024.7,115.7 1024.7,113.5C1024.7,111.3 1025.1,109.2 1025.8,107.3C1026.5,105.4 1027.6,103.8 1028.9,102.4C1030.2,101 1031.8,100 1033.7,99.2C1035.6,98.4 1037.6,98 1039.8,98C1043.4,98 1046.1,99 1048.1,100.9C1050.1,102.8 1051,105.6 1051,109.2C1051,109.7 1050.9,110 1050.7,110.1C1050.5,110.2 1050,110.3 1049.3,110.3L1031,110.3C1030.9,110.6 1030.9,111 1030.8,111.4C1030.8,111.8 1030.7,112.3 1030.7,112.8C1030.7,114.7 1030.9,116.4 1031.4,118C1031.9,119.6 1032.5,120.9 1033.4,122C1034.3,123.1 1035.3,124 1036.5,124.6C1037.7,125.2 1039,125.5 1040.5,125.5C1042,125.5 1043.5,125.2 1044.8,124.5C1046.1,123.8 1047.5,122.7 1048.9,121.2L1050.6,122.6ZM1041.5,107.7C1042.2,107.7 1042.8,107.7 1043.3,107.6C1043.7,107.6 1044.1,107.5 1044.3,107.4C1044.5,107.3 1044.7,107.1 1044.7,106.9C1044.8,106.7 1044.8,106.4 1044.8,106.1C1044.8,104.4 1044.3,103.1 1043.2,102.1C1042.1,101.1 1040.6,100.6 1038.8,100.6C1034.8,100.6 1032.4,103 1031.4,107.7L1041.5,107.7Z" style="fill:white;fill-rule:nonzero;"/>
        <path d="M1065.6,119C1065.6,120.5 1065.6,121.7 1065.7,122.6C1065.8,123.5 1066,124.1 1066.3,124.6C1066.6,125.1 1067.1,125.4 1067.6,125.5C1068.2,125.6 1069,125.8 1070.1,125.8L1070.1,127.7L1055.5,127.7L1055.5,125.8C1056.6,125.8 1057.4,125.7 1058,125.5C1058.6,125.3 1059.1,125 1059.4,124.6C1059.7,124.2 1059.9,123.5 1060,122.7C1060.1,121.9 1060.1,120.8 1060.1,119.4L1060.1,113C1060.1,110.5 1060.1,108.6 1060,107.2C1059.9,105.8 1059.8,104.8 1059.5,104.1C1059.2,103.4 1058.7,103 1058,102.9C1057.3,102.8 1056.4,102.7 1055.2,102.7L1055.2,100.8L1064.8,98.7L1065.6,105.5L1065.8,105.5C1066.3,104.4 1066.9,103.4 1067.6,102.5C1068.3,101.6 1069.1,100.8 1069.9,100.2C1070.7,99.6 1071.6,99.1 1072.5,98.7C1073.4,98.3 1074.4,98.1 1075.3,98.1C1076.5,98.1 1077.4,98.4 1078.1,99C1078.8,99.6 1079.1,100.3 1079.1,101.3C1079.1,102.2 1078.8,102.9 1078.3,103.4C1077.8,103.9 1077,104.1 1075.9,104.1C1075.3,104.1 1074.8,104 1074.4,103.9C1074,103.8 1073.6,103.6 1073.3,103.4C1073,103.2 1072.7,103.1 1072.4,102.9C1072.1,102.8 1071.8,102.7 1071.5,102.7C1070.5,102.7 1069.5,103.3 1068.5,104.6C1067.5,105.9 1066.7,107.5 1066.2,109.4C1065.9,110.5 1065.7,111.7 1065.5,113C1065.3,114.3 1065.3,115.7 1065.3,117.2L1065.3,119L1065.6,119Z" style="fill:white;fill-rule:nonzero;"/>
        <path d="M1091.7,122.3C1092.6,122.4 1093.4,122.4 1094.1,122.5C1094.8,122.6 1095.6,122.6 1096.3,122.7C1097,122.8 1097.7,122.9 1098.4,123C1099.1,123.1 1099.9,123.2 1100.7,123.3C1103.3,123.7 1105.5,124.7 1107.1,126.4C1108.7,128 1109.5,130.1 1109.5,132.5C1109.5,135.6 1108.3,137.9 1105.8,139.5C1103.4,141.1 1099.8,141.9 1095.2,141.9C1093.1,141.9 1091.3,141.7 1089.6,141.4C1087.9,141 1086.4,140.5 1085.2,139.8C1084,139.1 1083,138.3 1082.4,137.4C1081.7,136.4 1081.4,135.4 1081.4,134.3C1081.4,133.5 1081.5,132.8 1081.8,132.2C1082.1,131.6 1082.4,131 1082.8,130.5C1083.2,130 1083.8,129.6 1084.4,129.3C1085,129 1085.6,128.9 1086.3,128.9C1087.5,128.9 1088.7,129.3 1089.7,130.1C1088.7,130.3 1087.9,130.9 1087.3,131.7C1086.7,132.6 1086.4,133.5 1086.4,134.6C1086.4,136.2 1087.2,137.5 1088.8,138.3C1090.4,139.2 1092.7,139.6 1095.6,139.6C1101.9,139.6 1105,137.7 1105,133.8C1105,132.3 1104.5,131.1 1103.5,130.1C1102.5,129.1 1101.3,128.6 1100,128.4C1099.1,128.3 1098.2,128.2 1097.3,128C1096.4,127.9 1095.4,127.8 1094.5,127.6C1093.6,127.5 1092.8,127.4 1092,127.3C1091.2,127.2 1090.6,127.2 1090.1,127.1C1088,126.9 1086.5,126.3 1085.4,125.5C1084.3,124.7 1083.8,123.4 1083.8,121.9C1083.8,120.6 1084.3,119.5 1085.4,118.5C1086.5,117.5 1087.8,116.9 1089.4,116.6L1089.4,116.4C1088.6,116.1 1087.8,115.6 1087.1,115C1086.4,114.4 1085.8,113.7 1085.3,112.9C1084.8,112.1 1084.4,111.3 1084.1,110.4C1083.8,109.5 1083.7,108.6 1083.7,107.6C1083.7,106.2 1084,104.9 1084.5,103.7C1085,102.5 1085.8,101.5 1086.8,100.6C1087.8,99.7 1088.9,99.1 1090.2,98.6C1091.5,98.1 1093,97.9 1094.5,97.9C1096.1,97.9 1097.6,98.1 1099.1,98.6C1100.5,99.1 1101.8,99.8 1102.8,100.8C1104,99.8 1105.1,99 1106.1,98.6C1107.1,98.1 1108,97.9 1108.8,97.9C1110.1,97.9 1111.2,98.2 1112,98.8C1112.8,99.4 1113.2,100.2 1113.2,101.2C1113.2,101.8 1113,102.3 1112.6,102.7C1112.2,103.1 1111.7,103.2 1111,103.2C1110.5,103.2 1110.1,103.1 1109.7,102.9L1107.9,101.7C1107.6,101.5 1107.2,101.4 1106.8,101.4C1105.9,101.4 1105,101.7 1104.1,102.3C1105,103.7 1105.4,105.4 1105.4,107.4C1105.4,110.5 1104.4,113 1102.5,114.7C1100.6,116.5 1097.6,117.5 1093.8,117.8C1091.6,118 1090,118.2 1089.1,118.5C1088.2,118.8 1087.8,119.3 1087.8,120.1C1087.8,120.7 1088.1,121.1 1088.8,121.4C1089.5,121.7 1090.4,122.2 1091.7,122.3ZM1094.7,115.9C1096.2,115.9 1097.4,115.2 1098.3,113.8C1099.2,112.4 1099.6,110.4 1099.6,107.9C1099.6,105.4 1099.2,103.5 1098.3,102.1C1097.4,100.7 1096.2,100 1094.6,100C1093,100 1091.8,100.7 1090.8,102.1C1089.9,103.5 1089.4,105.4 1089.4,107.8C1089.4,110.2 1089.9,112.2 1090.8,113.6C1091.9,115.1 1093.1,115.9 1094.7,115.9Z" style="fill:white;fill-rule:nonzero;"/>
    </g>
    <g>
        <path d="M361.1,202.3L357.4,202.3L357.4,170.2L375.3,170.2L375.3,173.5L361.1,173.5L361.1,185.3L374.4,185.3L374.4,188.6L361.1,188.6L361.1,202.3Z" style="fill:white;fill-rule:nonzero;"/>
        <path d="M394.8,202.3L394.1,198.9L393.9,198.9C392.7,200.4 391.5,201.4 390.3,202C389.1,202.5 387.6,202.8 385.8,202.8C383.4,202.8 381.5,202.2 380.2,201C378.9,199.8 378.2,198 378.2,195.7C378.2,190.8 382.1,188.3 389.9,188.1L394,188L394,186.5C394,184.6 393.6,183.2 392.8,182.3C392,181.4 390.7,180.9 388.9,180.9C386.9,180.9 384.6,181.5 382.1,182.7L381,179.9C382.2,179.3 383.5,178.8 384.9,178.4C386.3,178 387.7,177.9 389.2,177.9C392.1,177.9 394.2,178.5 395.6,179.8C397,181.1 397.7,183.1 397.7,185.9L397.7,202.3L394.8,202.3ZM386.6,199.7C388.9,199.7 390.7,199.1 392,197.8C393.3,196.6 393.9,194.8 393.9,192.6L393.9,190.4L390.3,190.6C387.4,190.7 385.3,191.2 384,192C382.7,192.8 382.1,194 382.1,195.7C382.1,197 382.5,198 383.3,198.7C384.1,199.4 385.1,199.7 386.6,199.7Z" style="fill:white;fill-rule:nonzero;"/>
        <path d="M435.7,202.3L435.7,186.6C435.7,184.7 435.3,183.2 434.5,182.3C433.7,181.3 432.4,180.9 430.7,180.9C428.4,180.9 426.8,181.6 425.7,182.9C424.6,184.2 424.1,186.2 424.1,188.9L424.1,202.3L420.5,202.3L420.5,186.6C420.5,184.7 420.1,183.2 419.3,182.3C418.5,181.3 417.2,180.9 415.5,180.9C413.2,180.9 411.5,181.6 410.5,183C409.4,184.4 408.9,186.6 408.9,189.7L408.9,202.3L405,202.3L405,178.2L408,178.2L408.6,181.5L408.8,181.5C409.5,180.3 410.5,179.4 411.7,178.8C413,178.1 414.4,177.8 415.9,177.8C419.7,177.8 422.1,179.2 423.3,181.9L423.5,181.9C424.2,180.6 425.3,179.6 426.6,178.9C427.9,178.2 429.5,177.8 431.3,177.8C434,177.8 436.1,178.5 437.4,179.9C438.7,181.3 439.4,183.5 439.4,186.6L439.4,202.3L435.7,202.3Z" style="fill:white;fill-rule:nonzero;"/>
        <path d="M446.6,171.6C446.6,170.8 446.8,170.2 447.2,169.8C447.6,169.4 448.1,169.2 448.7,169.2C449.3,169.2 449.8,169.4 450.2,169.8C450.6,170.2 450.8,170.8 450.8,171.6C450.8,172.4 450.6,173 450.2,173.4C449.8,173.8 449.3,174 448.7,174C448.1,174 447.6,173.8 447.2,173.4C446.8,173.1 446.6,172.5 446.6,171.6ZM450.5,202.3L446.9,202.3L446.9,178.2L450.5,178.2L450.5,202.3Z" style="fill:white;fill-rule:nonzero;"/>
        <rect x="458.3" y="168.1" width="3.6" height="34.2" style="fill:white;fill-rule:nonzero;"/>
        <path d="M469.3,171.6C469.3,170.8 469.5,170.2 469.9,169.8C470.3,169.4 470.8,169.2 471.4,169.2C472,169.2 472.5,169.4 472.9,169.8C473.3,170.2 473.5,170.8 473.5,171.6C473.5,172.4 473.3,173 472.9,173.4C472.5,173.8 472,174 471.4,174C470.8,174 470.3,173.8 469.9,173.4C469.5,173.1 469.3,172.5 469.3,171.6ZM473.3,202.3L469.7,202.3L469.7,178.2L473.3,178.2L473.3,202.3Z" style="fill:white;fill-rule:nonzero;"/>
        <path d="M491.2,202.7C487.6,202.7 484.8,201.6 482.8,199.4C480.7,197.2 479.7,194.2 479.7,190.4C479.7,186.5 480.7,183.4 482.6,181.1C484.5,178.8 487.1,177.7 490.3,177.7C493.3,177.7 495.7,178.7 497.5,180.7C499.3,182.7 500.1,185.3 500.1,188.6L500.1,190.9L483.5,190.9C483.6,193.7 484.3,195.9 485.6,197.3C486.9,198.7 488.9,199.5 491.3,199.5C493.9,199.5 496.5,199 499,197.9L499,201.2C497.7,201.8 496.5,202.2 495.3,202.4C494.2,202.6 492.8,202.7 491.2,202.7ZM490.2,180.8C488.3,180.8 486.7,181.4 485.6,182.7C484.4,184 483.8,185.7 483.6,187.9L496.2,187.9C496.2,185.6 495.7,183.8 494.7,182.6C493.6,181.4 492.1,180.8 490.2,180.8Z" style="fill:white;fill-rule:nonzero;"/>
        <path d="M522.7,202.3L522.7,186.7C522.7,184.7 522.3,183.3 521.4,182.3C520.5,181.3 519.1,180.8 517.2,180.8C514.7,180.8 512.8,181.5 511.7,182.8C510.6,184.1 509.9,186.4 509.9,189.5L509.9,202.1L506.3,202.1L506.3,178L509.3,178L509.9,181.3L510.1,181.3C510.8,180.1 511.9,179.2 513.2,178.5C514.5,177.8 516,177.5 517.7,177.5C520.6,177.5 522.8,178.2 524.2,179.6C525.6,181 526.4,183.2 526.4,186.3L526.4,202L522.7,202L522.7,202.3Z" style="fill:white;fill-rule:nonzero;"/>
        <path d="M541.7,199.7C542.3,199.7 543,199.7 543.6,199.6C544.2,199.5 544.7,199.4 545,199.3L545,202.1C544.6,202.3 544,202.4 543.3,202.6C542.5,202.7 541.8,202.8 541.2,202.8C536.5,202.8 534.2,200.3 534.2,195.4L534.2,181L530.8,181L530.8,179.2L534.2,177.7L535.7,172.6L537.8,172.6L537.8,178.2L544.8,178.2L544.8,181L537.8,181L537.8,195.2C537.8,196.7 538.1,197.8 538.8,198.5C539.5,199.2 540.5,199.7 541.7,199.7Z" style="fill:white;fill-rule:nonzero;"/>
        <path d="M560.8,177.7C561.9,177.7 562.8,177.8 563.7,178L563.2,181.4C562.2,181.2 561.3,181.1 560.6,181.1C558.7,181.1 557,181.9 555.6,183.5C554.2,185.1 553.5,187.1 553.5,189.4L553.5,202.3L549.9,202.3L549.9,178.2L552.9,178.2L553.3,182.7L553.5,182.7C554.4,181.1 555.5,179.9 556.7,179.1C557.9,178.3 559.3,177.7 560.8,177.7Z" style="fill:white;fill-rule:nonzero;"/>
        <path d="M583,202.3L582.3,198.9L582.1,198.9C580.9,200.4 579.7,201.4 578.5,202C577.3,202.5 575.8,202.8 574,202.8C571.6,202.8 569.7,202.2 568.4,201C567,199.8 566.4,198 566.4,195.7C566.4,190.8 570.3,188.3 578.1,188.1L582.2,188L582.2,186.5C582.2,184.6 581.8,183.2 581,182.3C580.2,181.4 578.9,180.9 577.1,180.9C575.1,180.9 572.8,181.5 570.3,182.7L569.2,179.9C570.4,179.3 571.7,178.8 573.1,178.4C574.5,178 575.9,177.9 577.4,177.9C580.3,177.9 582.4,178.5 583.8,179.8C585.2,181.1 585.9,183.1 585.9,185.9L585.9,202.3L583,202.3ZM574.7,199.7C577,199.7 578.8,199.1 580,197.8C581.3,196.6 581.9,194.8 581.9,192.6L581.9,190.4L578.3,190.6C575.4,190.7 573.3,191.2 572,192C570.7,192.8 570.1,194 570.1,195.7C570.1,197 570.5,198 571.3,198.7C572.2,199.3 573.3,199.7 574.7,199.7Z" style="fill:white;fill-rule:nonzero;"/>
        <path d="M609.6,199L609.4,199C607.7,201.4 605.2,202.7 601.8,202.7C598.7,202.7 596.2,201.6 594.5,199.5C592.7,197.3 591.9,194.3 591.9,190.3C591.9,186.3 592.8,183.2 594.5,181C596.2,178.8 598.7,177.7 601.8,177.7C605.1,177.7 607.6,178.9 609.3,181.3L609.6,181.3L609.4,179.6L609.3,177.9L609.3,168.1L612.9,168.1L612.9,202.3L609.9,202.3L609.6,199ZM602.3,199.6C604.8,199.6 606.6,198.9 607.7,197.6C608.8,196.2 609.4,194.1 609.4,191L609.4,190.2C609.4,186.8 608.8,184.4 607.7,182.9C606.6,181.4 604.8,180.7 602.3,180.7C600.2,180.7 598.5,181.5 597.4,183.2C596.3,184.9 595.7,187.2 595.7,190.2C595.7,193.3 596.3,195.6 597.4,197.2C598.5,198.8 600.1,199.6 602.3,199.6Z" style="fill:white;fill-rule:nonzero;"/>
        <path d="M620.4,171.6C620.4,170.8 620.6,170.2 621,169.8C621.4,169.4 621.9,169.2 622.5,169.2C623.1,169.2 623.6,169.4 624,169.8C624.4,170.2 624.6,170.8 624.6,171.6C624.6,172.4 624.4,173 624,173.4C623.6,173.8 623.1,174 622.5,174C621.9,174 621.4,173.8 621,173.4C620.6,173.1 620.4,172.5 620.4,171.6ZM624.4,202.3L620.8,202.3L620.8,178.2L624.4,178.2L624.4,202.3Z" style="fill:white;fill-rule:nonzero;"/>
        <path d="M639.9,199.7C640.5,199.7 641.2,199.7 641.8,199.6C642.4,199.5 642.9,199.4 643.2,199.3L643.2,202.1C642.8,202.3 642.2,202.4 641.5,202.6C640.7,202.7 640,202.8 639.4,202.8C634.7,202.8 632.4,200.3 632.4,195.4L632.4,181L629,181L629,179.2L632.4,177.7L633.9,172.6L636,172.6L636,178.2L643,178.2L643,181L636,181L636,195.2C636,196.7 636.3,197.8 637,198.5C637.7,199.2 638.7,199.7 639.9,199.7Z" style="fill:white;fill-rule:nonzero;"/>
        <path d="M647.7,171.6C647.7,170.8 647.9,170.2 648.3,169.8C648.7,169.4 649.2,169.2 649.8,169.2C650.4,169.2 650.9,169.4 651.3,169.8C651.7,170.2 651.9,170.8 651.9,171.6C651.9,172.4 651.7,173 651.3,173.4C650.9,173.8 650.4,174 649.8,174C649.2,174 648.7,173.8 648.3,173.4C647.9,173.1 647.7,172.5 647.7,171.6ZM651.7,202.3L648,202.3L648,178.2L651.6,178.2L651.6,202.3L651.7,202.3Z" style="fill:white;fill-rule:nonzero;"/>
        <path d="M680.2,190.2C680.2,194.1 679.2,197.2 677.2,199.4C675.2,201.6 672.5,202.7 669,202.7C666.8,202.7 664.9,202.2 663.3,201.2C661.7,200.2 660.3,198.7 659.4,196.8C658.5,194.9 658,192.7 658,190.2C658,186.3 659,183.2 660.9,181C662.8,178.8 665.6,177.7 669.1,177.7C672.5,177.7 675.1,178.8 677.1,181.1C679.2,183.3 680.2,186.4 680.2,190.2ZM661.8,190.2C661.8,193.3 662.4,195.6 663.6,197.2C664.8,198.8 666.6,199.6 669,199.6C671.4,199.6 673.2,198.8 674.4,197.2C675.6,195.6 676.3,193.2 676.3,190.2C676.3,187.1 675.7,184.8 674.4,183.2C673.2,181.6 671.3,180.8 668.9,180.8C666.5,180.8 664.7,181.6 663.5,183.2C662.3,184.8 661.8,187.1 661.8,190.2Z" style="fill:white;fill-rule:nonzero;"/>
        <path d="M703.1,202.3L703.1,186.7C703.1,184.7 702.7,183.3 701.8,182.3C700.9,181.3 699.5,180.8 697.6,180.8C695.1,180.8 693.2,181.5 692.1,182.8C691,184.1 690.3,186.4 690.3,189.5L690.3,202.1L686.7,202.1L686.7,178L689.7,178L690.3,181.3L690.5,181.3C691.2,180.1 692.3,179.2 693.6,178.5C694.9,177.8 696.4,177.5 698.1,177.5C701,177.5 703.2,178.2 704.6,179.6C706,181 706.8,183.2 706.8,186.3L706.8,202L703.1,202L703.1,202.3Z" style="fill:white;fill-rule:nonzero;"/>
        <path d="M741.4,195.7C741.4,197.9 740.6,199.7 738.9,200.9C737.2,202.1 734.9,202.7 731.9,202.7C728.7,202.7 726.2,202.2 724.4,201.2L724.4,197.8C725.6,198.4 726.8,198.8 728.1,199.2C729.4,199.5 730.7,199.7 731.9,199.7C733.8,199.7 735.3,199.4 736.3,198.8C737.3,198.2 737.8,197.3 737.8,196C737.8,195.1 737.4,194.3 736.6,193.6C735.8,192.9 734.2,192.1 731.8,191.2C729.6,190.4 728,189.6 727,189C726.1,188.4 725.4,187.7 724.9,186.9C724.4,186.1 724.2,185.2 724.2,184.1C724.2,182.1 725,180.6 726.6,179.5C728.2,178.4 730.4,177.8 733.2,177.8C735.8,177.8 738.3,178.3 740.8,179.4L739.5,182.4C737.1,181.4 734.9,180.9 732.9,180.9C731.2,180.9 729.9,181.2 729,181.7C728.1,182.2 727.7,183 727.7,183.9C727.7,184.5 727.9,185.1 728.2,185.5C728.5,186 729.1,186.4 729.8,186.8C730.5,187.2 731.9,187.8 734,188.6C736.9,189.6 738.8,190.7 739.8,191.7C740.9,192.8 741.4,194.1 741.4,195.7Z" style="fill:white;fill-rule:nonzero;"/>
        <path d="M757.5,202.7C753.9,202.7 751.1,201.6 749.1,199.4C747,197.2 746,194.2 746,190.4C746,186.5 747,183.4 748.9,181.1C750.8,178.8 753.4,177.7 756.6,177.7C759.6,177.7 762,178.7 763.8,180.7C765.6,182.7 766.4,185.3 766.4,188.6L766.4,190.9L749.8,190.9C749.9,193.7 750.6,195.9 751.9,197.3C753.3,198.8 755.2,199.5 757.6,199.5C760.2,199.5 762.8,199 765.3,197.9L765.3,201.2C764,201.8 762.8,202.2 761.6,202.4C760.5,202.6 759.2,202.7 757.5,202.7ZM756.5,180.8C754.6,180.8 753,181.4 751.9,182.7C750.7,184 750.1,185.7 749.9,187.9L762.5,187.9C762.5,185.6 762,183.8 761,182.6C759.9,181.4 758.4,180.8 756.5,180.8Z" style="fill:white;fill-rule:nonzero;"/>
        <path d="M772.3,171.6C772.3,170.8 772.5,170.2 772.9,169.8C773.3,169.4 773.8,169.2 774.4,169.2C775,169.2 775.5,169.4 775.9,169.8C776.3,170.2 776.5,170.8 776.5,171.6C776.5,172.4 776.3,173 775.9,173.4C775.5,173.8 775,174 774.4,174C773.8,174 773.3,173.8 772.9,173.4C772.5,173.1 772.3,172.5 772.3,171.6ZM776.2,202.3L772.6,202.3L772.6,178.2L776.2,178.2L776.2,202.3Z" style="fill:white;fill-rule:nonzero;"/>
        <path d="M791.8,199.7C792.4,199.7 793.1,199.7 793.7,199.6C794.3,199.5 794.8,199.4 795.1,199.3L795.1,202.1C794.7,202.3 794.1,202.4 793.4,202.6C792.6,202.7 791.9,202.8 791.3,202.8C786.6,202.8 784.3,200.3 784.3,195.4L784.3,181L780.9,181L780.9,179.2L784.3,177.7L785.8,172.6L787.9,172.6L787.9,178.2L794.9,178.2L794.9,181L787.9,181L787.9,195.2C787.9,196.7 788.2,197.8 788.9,198.5C789.6,199.2 790.6,199.7 791.8,199.7Z" style="fill:white;fill-rule:nonzero;"/>
        <path d="M823.5,202.3L819.8,202.3L819.8,179.4C819.8,177.5 819.9,175.7 820,174C819.7,174.3 819.3,174.6 819,175C818.7,175.4 816.9,176.8 813.8,179.3L811.9,176.8L820.4,170.2L823.5,170.2L823.5,202.3Z" style="fill:white;fill-rule:nonzero;"/>
        <path d="M839.7,202.3L853,173.5L835.5,173.5L835.5,170.1L856.9,170.1L856.9,173L843.8,202.2L839.7,202.2L839.7,202.3Z" style="fill:white;fill-rule:nonzero;"/>
        <path d="M872,169.7C874.9,169.7 877.3,170.4 879,171.7C880.7,173.1 881.6,174.9 881.6,177.3C881.6,178.9 881.1,180.3 880.1,181.6C879.1,182.9 877.6,184.1 875.4,185.2C878,186.4 879.9,187.8 881,189.1C882.1,190.5 882.6,192.1 882.6,193.9C882.6,196.6 881.7,198.7 879.8,200.3C877.9,201.9 875.4,202.7 872.2,202.7C868.8,202.7 866.1,201.9 864.3,200.4C862.5,198.9 861.5,196.8 861.5,194C861.5,190.3 863.7,187.5 868.2,185.4C866.2,184.3 864.7,183 863.8,181.7C862.9,180.4 862.5,178.9 862.5,177.3C862.5,175 863.4,173.1 865.1,171.7C866.8,170.4 869.1,169.7 872,169.7ZM865,194.1C865,195.9 865.6,197.2 866.8,198.2C868,199.2 869.7,199.7 872,199.7C874.2,199.7 875.9,199.2 877.1,198.2C878.3,197.2 878.9,195.8 878.9,194C878.9,192.6 878.3,191.3 877.2,190.2C876.1,189.1 874.1,188 871.2,187C869,187.9 867.4,189 866.5,190.1C865.5,191.2 865,192.6 865,194.1ZM871.9,172.6C870.1,172.6 868.6,173 867.6,173.9C866.6,174.8 866,176 866,177.4C866,178.7 866.4,179.9 867.3,180.9C868.2,181.9 869.8,182.8 872.1,183.8C874.2,182.9 875.7,182 876.5,181C877.4,180 877.8,178.8 877.8,177.5C877.8,176 877.3,174.8 876.2,174C875.3,173.1 873.8,172.6 871.9,172.6Z" style="fill:white;fill-rule:nonzero;"/>
        <path d="M909.7,194.9L904.9,194.9L904.9,202.3L901.4,202.3L901.4,194.9L885.8,194.9L885.8,191.7L901,170L904.9,170L904.9,191.6L909.7,191.6L909.7,194.9ZM901.4,191.6L901.4,180.9C901.4,178.8 901.5,176.4 901.6,173.8L901.4,173.8C900.7,175.2 900,176.4 899.4,177.3L889.4,191.6L901.4,191.6Z" style="fill:white;fill-rule:nonzero;"/>
    </g>
    <path d="M326.8,73.6L326.8,215.6" style="fill:none;fill-rule:nonzero;stroke:rgb(129,215,66);stroke-width:5px;"/>
</svg>
