<?xml version="1.0" encoding="UTF-8" standalone="no"?>
<!DOCTYPE svg PUBLIC "-//W3C//DTD SVG 1.1//EN" "http://www.w3.org/Graphics/SVG/1.1/DTD/svg11.dtd">
<svg width="100%" height="100%" viewBox="0 0 193 242" version="1.1" xmlns="http://www.w3.org/2000/svg" xmlns:xlink="http://www.w3.org/1999/xlink" xml:space="preserve" xmlns:serif="http://www.serif.com/" style="fill-rule:evenodd;clip-rule:evenodd;stroke-linejoin:round;stroke-miterlimit:2;">
    <g id="Ebene-1" serif:id="Ebene 1">
        <g transform="matrix(1,0,0,1,93.2807,215.555)">
            <path d="M0,-108.755C-5.27,-114.294 -11.634,-118.183 -18.9,-119.837C-34.073,-123.291 -47.688,-120.216 -58.981,-108.751C-64.995,-102.644 -68.535,-95.398 -70.414,-87.2C-71.219,-83.685 -71.231,-80.108 -70.853,-76.533C-70.138,-69.779 -68.066,-63.47 -64.595,-57.624C-63.845,-56.362 -62.869,-55.281 -61.938,-54.157C-56.217,-47.253 -49.75,-41.052 -43.575,-34.575C-36.805,-27.473 -30.338,-20.085 -23.361,-13.18C-16.352,-6.242 -10.15,1.457 -3.031,8.291C3.076,14.154 11.965,14.019 17.574,8.339C22.449,3.403 27.321,-1.538 31.886,-6.777C36.814,-12.433 42.514,-17.375 47.451,-23.012C55.119,-31.768 63.56,-39.773 71.465,-48.293C75.993,-53.175 80.291,-58.269 82.631,-64.63C84.799,-70.521 86.261,-76.543 85.325,-82.933C84.705,-87.167 84.205,-91.397 82.43,-95.372C80.15,-100.478 77.154,-105.036 73.194,-109.028C70.104,-112.143 66.656,-114.712 62.801,-116.702C59.31,-118.504 55.576,-119.734 51.681,-120.407C48.006,-121.041 44.334,-121.685 40.582,-121.152C35.947,-120.495 31.368,-119.739 27.113,-117.541C24.134,-116.001 20.992,-115.768 18.232,-118.183C15.606,-120.48 15.775,-126.041 18.506,-128.186C20.875,-130.047 23.668,-131.12 26.485,-132.04C32.203,-133.908 38.018,-135.31 42.897,-134.898C55.593,-135.088 66.041,-131.584 75.337,-125.183C84.864,-118.624 91.871,-109.805 95.812,-98.767C100.621,-85.297 100.362,-71.938 94.953,-58.681C92.216,-51.973 88.095,-46.239 83.205,-40.916C76.803,-33.945 69.937,-27.419 63.638,-20.362C58.472,-14.575 53.05,-9.039 47.665,-3.466C41.024,3.406 34.738,10.607 28.007,17.398C21.713,23.747 14.267,26.555 5.394,26.113C-1.765,25.756 -7.758,22.889 -12.745,17.954C-18.574,12.186 -24.093,6.116 -29.626,0.058C-34.474,-5.25 -39.771,-10.154 -44.601,-15.487C-51.189,-22.761 -58.239,-29.595 -64.836,-36.847C-69.551,-42.03 -74.657,-46.934 -77.98,-53.298C-84.389,-65.57 -86.328,-78.428 -83.233,-91.923C-81.13,-101.094 -77.03,-109.294 -70.653,-116.337C-62.146,-125.735 -51.775,-131.623 -39.287,-133.988C-33.765,-135.033 -28.228,-135.301 -22.759,-134.593C-11.138,-133.09 -0.817,-128.511 7.727,-120.286C11.535,-116.619 14.948,-112.617 18.338,-108.561C21.817,-104.398 25.319,-100.242 28.853,-96.12C32.464,-91.909 35.72,-87.393 39.489,-83.308C42.373,-80.183 40.866,-75.754 38.807,-73.745C36.14,-71.141 31.916,-71.2 29.318,-74.085C25.888,-77.893 22.703,-81.922 19.42,-85.863" style="fill:rgb(255,88,93);fill-rule:nonzero;"/>
        </g>
        <g transform="matrix(1,0,0,1,39.4862,13.0598)">
            <path d="M0,52.852C-14.595,52.852 -26.426,41.021 -26.426,26.426C-26.426,11.831 -14.595,0 0,0C14.595,0 26.426,11.831 26.426,26.426C26.426,41.021 14.595,52.852 0,52.852M0,-13.06C-21.808,-13.06 -39.486,4.618 -39.486,26.426C-39.486,48.234 -21.808,65.912 0,65.912C21.808,65.912 39.486,48.234 39.486,26.426C39.486,4.618 21.808,-13.06 0,-13.06" style="fill:rgb(255,88,93);fill-rule:nonzero;"/>
        </g>
        <g transform="matrix(1,0,0,1,158.318,38.089)">
            <path d="M0,27.049C-7.501,27.049 -13.582,20.968 -13.582,13.467C-13.582,5.965 -7.501,-0.116 0,-0.116C7.501,-0.116 13.582,5.965 13.582,13.467C13.582,20.968 7.501,27.049 0,27.049M-0.084,-13.148C-14.815,-13.148 -26.757,-1.206 -26.757,13.525C-26.757,28.255 -14.815,40.197 -0.084,40.197C14.647,40.197 26.588,28.255 26.588,13.525C26.588,-1.206 14.647,-13.148 -0.084,-13.148" style="fill:rgb(255,88,93);fill-rule:nonzero;"/>
        </g>
    </g>
</svg>
